<?xml version="1.0" encoding="UTF-8" standalone="no"?>
<svg
   xmlns:dc="http://purl.org/dc/elements/1.1/"
   xmlns:cc="http://creativecommons.org/ns#"
   xmlns:rdf="http://www.w3.org/1999/02/22-rdf-syntax-ns#"
   xmlns:svg="http://www.w3.org/2000/svg"
   xmlns="http://www.w3.org/2000/svg"
   xmlns:sodipodi="http://sodipodi.sourceforge.net/DTD/sodipodi-0.dtd"
   xmlns:inkscape="http://www.inkscape.org/namespaces/inkscape"
   id="svg"
   version="1.1"
   width="2000"
   height="2365"
   style="display: block;"
   sodipodi:docname="image2vector.svg"
   inkscape:version="0.92.2 (unknown)">
  <metadata
     id="metadata10">
    <rdf:RDF>
      <cc:Work
         rdf:about="">
        <dc:format>image/svg+xml</dc:format>
        <dc:type
           rdf:resource="http://purl.org/dc/dcmitype/StillImage" />
        <dc:title></dc:title>
      </cc:Work>
    </rdf:RDF>
  </metadata>
  <defs
     id="defs8" />
  <sodipodi:namedview
     pagecolor="#8f8f8f"
     bordercolor="#666666"
     borderopacity="1"
     objecttolerance="10"
     gridtolerance="10"
     guidetolerance="10"
     inkscape:pageopacity="0"
     inkscape:pageshadow="2"
     inkscape:window-width="1871"
     inkscape:window-height="1176"
     id="namedview6"
     showgrid="false"
     inkscape:zoom="2.8284271"
     inkscape:cx="179.58007"
     inkscape:cy="2265.5949"
     inkscape:window-x="3889"
     inkscape:window-y="24"
     inkscape:window-maximized="1"
     inkscape:current-layer="svg" />
  <path
     style="fill:#ffffff;fill-rule:evenodd;stroke:none"
     inkscape:connector-curvature="0"
     d="m 117.831,0.373 c -0.237,0.206 -0.431,0.521 -0.431,0.7 0,0.18 -0.09,0.327 -0.2,0.327 -0.353,0 -0.213,1.576 0.222,2.502 0.232,0.494 0.502,0.898 0.6,0.898 0.098,0 0.178,0.18 0.178,0.4 0,0.22 0.09,0.4 0.2,0.4 0.11,0 0.2,0.18 0.2,0.4 0,0.22 0.09,0.4 0.2,0.4 0.11,0 0.2,0.118 0.2,0.262 0,0.145 0.18,0.456 0.4,0.692 0.22,0.236 0.4,0.568 0.4,0.738 0,0.169 0.09,0.308 0.2,0.308 0.11,0 0.2,0.18 0.2,0.4 0,0.22 0.09,0.4 0.2,0.4 0.11,0 0.2,0.115 0.2,0.256 0,0.141 0.18,0.385 0.4,0.544 0.22,0.159 0.4,0.448 0.4,0.644 0,0.196 0.09,0.356 0.2,0.356 0.11,0 0.2,0.18 0.2,0.4 0,0.22 0.09,0.4 0.2,0.4 0.11,0 0.2,0.16 0.2,0.356 0,0.196 0.18,0.485 0.4,0.644 0.22,0.159 0.4,0.448 0.4,0.644 0,0.196 0.09,0.356 0.2,0.356 0.11,0 0.2,0.159 0.2,0.354 0,0.194 0.225,0.684 0.5,1.089 0.275,0.405 0.5,0.831 0.5,0.946 0,0.116 0.09,0.211 0.2,0.211 0.11,0 0.2,0.139 0.2,0.308 0,0.17 0.18,0.502 0.4,0.738 0.22,0.236 0.4,0.547 0.4,0.692 0,0.144 0.09,0.262 0.2,0.262 0.11,0 0.2,0.18 0.2,0.4 0,0.22 0.09,0.4 0.2,0.4 0.11,0 0.2,0.16 0.2,0.356 0,0.196 0.18,0.485 0.4,0.644 0.22,0.159 0.4,0.448 0.4,0.644 0,0.196 0.09,0.356 0.2,0.356 0.11,0 0.2,0.18 0.2,0.4 0,0.22 0.09,0.4 0.2,0.4 0.11,0 0.2,0.135 0.2,0.3 0,0.165 0.09,0.3 0.2,0.3 0.11,0 0.2,0.135 0.2,0.3 0,0.165 0.09,0.3 0.2,0.3 0.11,0 0.2,0.135 0.2,0.3 0,0.165 0.09,0.3 0.2,0.3 0.11,0 0.2,0.18 0.2,0.4 0,0.22 0.09,0.4 0.2,0.4 0.11,0 0.2,0.18 0.2,0.4 0,0.22 0.073,0.4 0.163,0.4 0.089,0 0.356,0.428 0.593,0.95 0.447,0.985 1.058,2.076 1.26,2.25 0.064,0.055 0.243,0.393 0.399,0.75 0.155,0.357 0.351,0.65 0.434,0.65 0.083,0 0.151,0.118 0.151,0.262 0,0.145 0.18,0.456 0.4,0.692 0.22,0.236 0.4,0.568 0.4,0.738 0,0.169 0.09,0.308 0.2,0.308 0.11,0 0.2,0.139 0.2,0.308 0,0.17 0.18,0.502 0.4,0.738 0.22,0.236 0.4,0.547 0.4,0.692 0,0.144 0.09,0.262 0.2,0.262 0.11,0 0.2,0.18 0.2,0.4 0,0.22 0.09,0.4 0.2,0.4 0.11,0 0.2,0.16 0.2,0.356 0,0.196 0.18,0.485 0.4,0.644 0.22,0.159 0.4,0.403 0.4,0.544 0,0.141 0.09,0.256 0.2,0.256 0.11,0 0.2,0.132 0.2,0.293 0,0.406 0.638,1.707 0.837,1.707 0.09,0 0.163,0.18 0.163,0.4 0,0.22 0.09,0.4 0.2,0.4 0.11,0 0.2,0.18 0.2,0.4 0,0.22 0.067,0.401 0.15,0.402 0.083,0 0.259,0.236 0.392,0.522 0.268,0.577 -0.023,1.076 -0.628,1.076 -0.173,0 -0.314,0.09 -0.314,0.2 0,0.11 -0.18,0.2 -0.4,0.2 -0.22,0 -0.4,0.09 -0.4,0.2 0,0.11 -0.135,0.2 -0.3,0.2 -0.165,0 -0.3,0.09 -0.3,0.2 0,0.11 -0.18,0.2 -0.4,0.2 -0.22,0 -0.4,0.09 -0.4,0.2 0,0.11 -0.145,0.2 -0.323,0.2 -0.358,0 -2.338,1.013 -2.444,1.25 -0.036,0.082 -0.239,0.15 -0.45,0.15 -0.211,0 -0.383,0.068 -0.383,0.151 0,0.083 -0.253,0.263 -0.562,0.4 -0.31,0.137 -0.756,0.429 -0.992,0.649 -0.236,0.22 -0.568,0.4 -0.738,0.4 -0.169,0 -0.308,0.09 -0.308,0.2 0,0.11 -0.118,0.2 -0.262,0.2 -0.145,0 -0.456,0.18 -0.692,0.4 -0.236,0.22 -0.548,0.4 -0.693,0.4 -0.146,0 -0.394,0.18 -0.553,0.4 -0.159,0.22 -0.429,0.4 -0.6,0.4 -0.171,0 -0.441,0.18 -0.6,0.4 -0.159,0.22 -0.429,0.4 -0.6,0.4 -0.171,0 -0.441,0.18 -0.6,0.4 -0.159,0.22 -0.451,0.4 -0.65,0.4 -0.2,0 -0.414,0.135 -0.478,0.3 -0.063,0.165 -0.265,0.3 -0.449,0.3 -0.184,0 -0.464,0.18 -0.623,0.4 -0.159,0.22 -0.404,0.4 -0.546,0.4 -0.142,0 -0.54,0.27 -0.885,0.6 -0.346,0.33 -0.73,0.6 -0.855,0.6 -0.124,0 -0.355,0.18 -0.514,0.4 -0.159,0.22 -0.386,0.4 -0.505,0.4 -0.207,0 -0.903,0.574 -2.548,2.101 -0.415,0.384 -0.846,0.699 -0.959,0.699 -0.231,0 -0.512,0.216 -1.492,1.15 -0.376,0.358 -0.765,0.65 -0.866,0.65 -0.101,0 -0.775,0.563 -1.499,1.25 -0.723,0.688 -2.091,1.97 -3.04,2.85 -2.621,2.431 -7.891,7.777 -7.891,8.005 0,0.051 -0.54,0.641 -1.2,1.311 -0.66,0.67 -1.2,1.31 -1.2,1.421 0,0.111 -0.253,0.441 -0.562,0.733 -0.31,0.291 -0.737,0.844 -0.95,1.229 -0.214,0.384 -0.636,0.937 -0.938,1.23 -0.302,0.292 -0.55,0.594 -0.55,0.671 0,0.077 -0.27,0.392 -0.6,0.7 -0.33,0.308 -0.6,0.668 -0.6,0.8 0,0.132 -0.27,0.492 -0.6,0.8 -0.33,0.308 -0.6,0.685 -0.6,0.836 0,0.152 -0.18,0.405 -0.4,0.564 -0.22,0.159 -0.4,0.415 -0.4,0.571 0,0.155 -0.158,0.428 -0.351,0.606 -0.194,0.177 -0.479,0.571 -0.634,0.873 C 91.06,82.753 90.858,83 90.766,83 90.675,83 90.6,83.124 90.6,83.276 c 0,0.151 -0.135,0.387 -0.3,0.524 -0.165,0.137 -0.3,0.398 -0.3,0.58 0,0.183 -0.18,0.461 -0.4,0.62 -0.22,0.159 -0.4,0.429 -0.4,0.6 0,0.171 -0.18,0.441 -0.4,0.6 -0.22,0.159 -0.4,0.448 -0.4,0.644 0,0.196 -0.09,0.356 -0.2,0.356 -0.11,0 -0.2,0.16 -0.2,0.356 0,0.196 -0.18,0.485 -0.4,0.644 -0.22,0.159 -0.4,0.448 -0.4,0.644 0,0.196 -0.09,0.356 -0.2,0.356 -0.11,0 -0.2,0.18 -0.2,0.4 0,0.22 -0.09,0.4 -0.2,0.4 -0.11,0 -0.2,0.135 -0.2,0.3 0,0.165 -0.09,0.3 -0.2,0.3 -0.11,0 -0.2,0.135 -0.2,0.3 0,0.165 -0.073,0.3 -0.163,0.3 -0.089,0 -0.286,0.315 -0.437,0.7 -0.151,0.385 -0.348,0.7 -0.437,0.7 -0.09,0 -0.163,0.18 -0.163,0.4 0,0.22 -0.09,0.4 -0.2,0.4 -0.11,0 -0.2,0.18 -0.2,0.4 0,0.22 -0.09,0.4 -0.2,0.4 -0.11,0 -0.2,0.18 -0.2,0.4 0,0.22 -0.082,0.4 -0.182,0.4 -0.101,0 -0.244,0.36 -0.318,0.8 -0.074,0.44 -0.217,0.8 -0.318,0.8 -0.1,0 -0.182,0.135 -0.182,0.3 0,0.165 -0.09,0.3 -0.2,0.3 -0.11,0 -0.2,0.18 -0.2,0.4 0,0.22 -0.09,0.4 -0.2,0.4 -0.11,0 -0.2,0.175 -0.2,0.388 0,0.214 -0.09,0.444 -0.2,0.512 -0.11,0.068 -0.2,0.343 -0.2,0.612 0,0.268 -0.09,0.488 -0.2,0.488 -0.11,0 -0.2,0.18 -0.2,0.4 0,0.22 -0.09,0.4 -0.2,0.4 -0.11,0 -0.2,0.18 -0.2,0.4 0,0.22 -0.09,0.4 -0.2,0.4 -0.11,0 -0.2,0.27 -0.2,0.6 0,0.33 -0.09,0.6 -0.2,0.6 -0.11,0 -0.2,0.18 -0.2,0.4 0,0.22 -0.09,0.4 -0.2,0.4 -0.11,0 -0.2,0.225 -0.2,0.5 0,0.275 -0.09,0.5 -0.2,0.5 -0.11,0 -0.2,0.22 -0.2,0.488 0,0.269 -0.09,0.544 -0.2,0.612 -0.11,0.068 -0.2,0.298 -0.2,0.512 0,0.213 -0.09,0.388 -0.2,0.388 -0.11,0 -0.2,0.27 -0.2,0.6 0,0.33 -0.09,0.6 -0.2,0.6 -0.11,0 -0.2,0.27 -0.2,0.6 0,0.33 -0.09,0.6 -0.2,0.6 -0.11,0 -0.2,0.27 -0.2,0.6 0,0.33 -0.08,0.6 -0.177,0.6 -0.098,0 -0.222,0.247 -0.277,0.55 -0.054,0.303 -0.289,1.262 -0.522,2.132 -0.233,0.87 -0.424,1.838 -0.424,2.15 0,0.312 -0.09,0.568 -0.2,0.568 -0.11,0 -0.2,0.259 -0.2,0.576 0,0.931 -0.256,0.999 -3.1,0.829 -2.728,-0.163 -3.545,-0.365 -4.107,-1.013 -0.187,-0.215 -0.482,-0.392 -0.655,-0.392 -0.173,0 -0.37,-0.09 -0.438,-0.2 -0.197,-0.319 -1.744,-0.203 -2.4,0.18 -0.81,0.474 -1.023,3.685 -0.308,4.652 0.224,0.303 0.408,0.73 0.408,0.948 0,0.218 0.09,0.452 0.2,0.52 0.11,0.068 0.2,0.371 0.2,0.674 0,0.303 0.18,0.744 0.4,0.98 0.22,0.236 0.4,0.658 0.4,0.938 0,0.279 0.09,0.508 0.2,0.508 0.11,0 0.2,0.36 0.2,0.8 0,0.44 0.09,0.8 0.2,0.8 0.11,0 0.202,0.247 0.204,0.55 0.003,0.303 0.181,0.775 0.396,1.05 0.215,0.275 0.393,0.748 0.396,1.05 0.002,0.303 0.094,0.55 0.204,0.55 0.11,0 0.2,0.315 0.2,0.7 0,0.385 0.09,0.7 0.2,0.7 0.11,0 0.2,0.298 0.2,0.662 0,0.386 0.167,0.842 0.4,1.092 0.244,0.262 0.4,0.706 0.4,1.138 0,0.389 0.081,0.708 0.181,0.708 0.099,0 0.228,0.428 0.287,0.95 0.058,0.522 0.195,1.445 0.304,2.05 0.381,2.109 0.236,5.62 -0.41,9.9 -0.28,1.859 -0.437,21.067 -0.177,21.6 0.108,0.22 0.235,0.85 0.282,1.4 0.093,1.074 0.426,2.551 0.723,3.2 0.1,0.22 0.25,0.715 0.333,1.1 0.083,0.385 0.179,40.772 0.214,89.75 0.042,59.059 0.131,89.05 0.263,89.05 0.11,0 0.2,0.36 0.2,0.8 0,0.44 0.09,0.8 0.2,0.8 0.11,0 0.2,0.136 0.2,0.303 0,0.485 0.483,1.897 0.649,1.897 0.083,0 0.151,0.18 0.151,0.4 0,0.22 0.09,0.4 0.2,0.4 0.11,0 0.2,0.18 0.2,0.4 0,0.22 0.09,0.4 0.2,0.4 0.11,0 0.2,0.18 0.2,0.4 0,0.22 0.09,0.4 0.2,0.4 0.11,0 0.2,0.16 0.2,0.356 0,0.196 0.18,0.485 0.4,0.644 0.22,0.159 0.4,0.429 0.4,0.6 0,0.171 0.18,0.441 0.4,0.6 0.22,0.159 0.4,0.37 0.4,0.471 0,0.1 0.159,0.328 0.353,0.506 0.194,0.177 0.614,0.726 0.933,1.22 0.613,0.945 3.424,3.803 3.741,3.803 0.103,0 0.485,0.298 0.85,0.663 0.364,0.365 0.946,0.781 1.293,0.925 0.346,0.143 0.63,0.34 0.63,0.436 0,0.097 0.135,0.176 0.3,0.176 0.165,0 0.3,0.09 0.3,0.2 0,0.11 0.18,0.2 0.4,0.2 0.22,0 0.401,0.068 0.402,0.15 0.001,0.18 0.97,0.65 1.338,0.65 0.143,0 0.26,0.09 0.26,0.2 0,0.11 0.18,0.2 0.4,0.2 0.22,0 0.4,0.09 0.4,0.2 0,0.11 0.27,0.2 0.6,0.2 0.33,0 0.6,0.09 0.6,0.2 0,0.11 0.27,0.2 0.6,0.2 0.33,0 0.6,0.09 0.6,0.2 0,0.132 5.633,0.2 16.5,0.2 H 123 v 34.7 c 0,19.085 0.076,34.7 0.17,34.7 0.093,0 0.225,0.915 0.293,2.034 0.069,1.118 0.217,2.126 0.331,2.24 0.113,0.113 0.206,0.498 0.206,0.854 0,0.357 0.09,0.704 0.2,0.772 0.11,0.068 0.2,0.343 0.2,0.612 0,0.268 0.09,0.488 0.2,0.488 0.11,0 0.2,0.27 0.2,0.6 0,0.33 0.09,0.6 0.2,0.6 0.11,0 0.2,0.18 0.2,0.4 0,0.22 0.09,0.4 0.2,0.4 0.11,0 0.2,0.27 0.2,0.6 0,0.33 0.09,0.6 0.2,0.6 0.11,0 0.2,0.18 0.2,0.4 0,0.22 0.09,0.4 0.2,0.4 0.11,0 0.2,0.18 0.2,0.4 0,0.22 0.09,0.4 0.2,0.4 0.11,0 0.2,0.118 0.2,0.262 0,0.145 0.158,0.437 0.35,0.65 0.193,0.214 0.485,0.658 0.65,0.988 0.165,0.33 0.547,0.839 0.85,1.13 0.302,0.292 0.55,0.641 0.55,0.777 0,0.135 0.16,0.392 0.355,0.57 0.195,0.177 0.527,0.593 0.736,0.923 0.587,0.926 2.54,2.906 3.207,3.25 0.328,0.17 0.837,0.566 1.13,0.88 0.293,0.313 0.643,0.57 0.779,0.57 0.135,0 0.392,0.158 0.57,0.351 0.177,0.194 0.57,0.479 0.873,0.634 0.303,0.155 0.55,0.357 0.55,0.449 0,0.091 0.135,0.166 0.3,0.166 0.165,0 0.3,0.09 0.3,0.2 0,0.11 0.18,0.2 0.4,0.2 0.22,0 0.4,0.09 0.4,0.2 0,0.11 0.18,0.2 0.4,0.2 0.22,0 0.4,0.09 0.4,0.2 0,0.11 0.22,0.2 0.488,0.2 0.269,0 0.544,0.09 0.612,0.2 0.068,0.11 0.298,0.2 0.512,0.2 0.213,0 0.388,0.09 0.388,0.2 0,0.11 0.27,0.2 0.6,0.2 0.33,0 0.6,0.09 0.6,0.2 0,0.11 0.265,0.2 0.588,0.2 0.324,0 0.644,0.09 0.712,0.2 0.068,0.11 0.46,0.2 0.872,0.2 0.411,0 0.834,0.084 0.938,0.187 0.492,0.484 9.088,0.484 9.58,0 0.104,-0.103 0.487,-0.187 0.85,-0.187 0.363,0 0.66,-0.09 0.66,-0.2 0,-0.11 0.36,-0.2 0.8,-0.2 0.44,0 0.8,-0.09 0.8,-0.2 0,-0.11 0.27,-0.2 0.6,-0.2 0.33,0 0.6,-0.09 0.6,-0.2 0,-0.11 0.18,-0.2 0.4,-0.2 0.22,0 0.4,-0.09 0.4,-0.2 0,-0.11 0.171,-0.2 0.381,-0.2 0.334,0 1.946,-0.727 2.219,-1 0.055,-0.055 0.348,-0.228 0.65,-0.384 0.303,-0.156 0.55,-0.358 0.55,-0.45 0,-0.091 0.16,-0.166 0.356,-0.166 0.196,0 0.485,-0.18 0.644,-0.4 0.159,-0.22 0.386,-0.4 0.505,-0.4 0.119,0 0.561,-0.315 0.981,-0.7 0.42,-0.385 0.836,-0.7 0.923,-0.7 0.26,0 2.791,-2.534 2.791,-2.793 0,-0.131 0.36,-0.584 0.8,-1.007 0.44,-0.423 0.8,-0.891 0.8,-1.04 0,-0.15 0.18,-0.401 0.4,-0.56 0.22,-0.159 0.4,-0.427 0.4,-0.596 0,-0.169 0.18,-0.42 0.4,-0.558 0.22,-0.137 0.4,-0.384 0.4,-0.548 0,-0.164 0.068,-0.299 0.15,-0.3 0.083,0 0.249,-0.203 0.37,-0.45 0.121,-0.246 0.425,-0.853 0.675,-1.348 0.25,-0.495 0.534,-1.056 0.63,-1.247 0.096,-0.191 0.175,-0.484 0.175,-0.65 0,-0.167 0.07,-0.303 0.156,-0.303 0.169,0 0.844,-2.116 0.844,-2.648 0,-0.181 0.09,-0.384 0.2,-0.452 0.11,-0.068 0.2,-0.433 0.2,-0.812 0,-0.378 0.09,-0.688 0.2,-0.688 0.11,0 0.2,-0.45 0.2,-1 0,-0.55 0.09,-1 0.2,-1 0.113,0 0.2,-0.567 0.2,-1.3 0,-0.733 0.087,-1.3 0.2,-1.3 0.133,0 0.2,-11.667 0.2,-34.6 V 373 h 21.6 21.6 v 34.1 c 0,22.6 0.067,34.1 0.2,34.1 0.117,0 0.2,0.667 0.2,1.6 0,0.933 0.083,1.6 0.2,1.6 0.11,0 0.2,0.45 0.2,1 0,0.55 0.09,1 0.2,1 0.11,0 0.2,0.36 0.2,0.8 0,0.44 0.078,0.8 0.174,0.8 0.096,0 0.234,0.446 0.306,0.992 0.072,0.545 0.201,1.035 0.286,1.087 0.085,0.053 0.279,0.551 0.431,1.108 0.151,0.557 0.349,1.013 0.439,1.013 0.09,0 0.164,0.18 0.164,0.4 0,0.22 0.09,0.4 0.2,0.4 0.11,0 0.2,0.18 0.2,0.4 0,0.22 0.09,0.4 0.2,0.4 0.11,0 0.2,0.18 0.2,0.4 0,0.22 0.09,0.4 0.2,0.4 0.11,0 0.2,0.18 0.2,0.4 0,0.22 0.09,0.4 0.2,0.4 0.11,0 0.2,0.115 0.2,0.256 0,0.141 0.18,0.385 0.4,0.544 0.22,0.159 0.4,0.412 0.4,0.564 0,0.151 0.27,0.528 0.6,0.836 0.33,0.308 0.6,0.658 0.6,0.777 0,0.241 1.272,1.657 3.1,3.449 1.693,1.661 2.057,1.974 2.295,1.974 0.115,0 0.491,0.27 0.836,0.6 0.346,0.33 0.75,0.6 0.899,0.6 0.148,0 0.27,0.09 0.27,0.2 0,0.11 0.18,0.2 0.4,0.2 0.22,0 0.4,0.075 0.4,0.167 0,0.201 2.344,1.433 2.728,1.433 0.15,0 0.272,0.09 0.272,0.2 0,0.11 0.175,0.2 0.388,0.2 0.214,0 0.444,0.09 0.512,0.2 0.068,0.11 0.343,0.2 0.612,0.2 0.268,0 0.488,0.09 0.488,0.2 0,0.11 0.36,0.2 0.8,0.2 0.44,0 0.8,0.09 0.8,0.2 0,0.11 0.355,0.2 0.788,0.2 0.434,0 0.844,0.09 0.912,0.2 0.068,0.11 0.85,0.2 1.739,0.2 0.888,0 1.971,0.107 2.406,0.237 0.609,0.183 0.878,0.183 1.17,0 0.219,-0.137 1.137,-0.237 2.17,-0.237 0.985,0 1.847,-0.09 1.915,-0.2 0.068,-0.11 0.523,-0.2 1.012,-0.2 0.488,0 0.888,-0.09 0.888,-0.2 0,-0.11 0.27,-0.2 0.6,-0.2 0.33,0 0.6,-0.09 0.6,-0.2 0,-0.11 0.27,-0.2 0.6,-0.2 0.33,0 0.6,-0.09 0.6,-0.2 0,-0.11 0.27,-0.2 0.6,-0.2 0.33,0 0.6,-0.09 0.6,-0.2 0,-0.11 0.18,-0.2 0.4,-0.2 0.22,0 0.4,-0.09 0.4,-0.2 0,-0.11 0.18,-0.2 0.4,-0.2 0.22,0 0.4,-0.09 0.4,-0.2 0,-0.11 0.18,-0.2 0.4,-0.2 0.22,0 0.4,-0.068 0.4,-0.151 0,-0.083 0.253,-0.263 0.562,-0.4 0.31,-0.137 0.756,-0.429 0.992,-0.649 0.236,-0.22 0.532,-0.4 0.657,-0.4 0.126,0 0.481,-0.27 0.789,-0.6 0.308,-0.33 0.659,-0.6 0.779,-0.6 0.547,0 4.621,-4.074 4.621,-4.621 0,-0.12 0.27,-0.471 0.6,-0.779 0.33,-0.308 0.6,-0.685 0.6,-0.836 0,-0.152 0.18,-0.405 0.4,-0.564 0.22,-0.159 0.4,-0.403 0.4,-0.544 0,-0.141 0.09,-0.256 0.2,-0.256 0.11,0 0.2,-0.118 0.2,-0.262 0,-0.145 0.18,-0.456 0.4,-0.692 0.22,-0.236 0.4,-0.568 0.4,-0.738 0,-0.169 0.09,-0.308 0.2,-0.308 0.11,0 0.2,-0.18 0.2,-0.4 0,-0.22 0.09,-0.4 0.2,-0.4 0.11,0 0.2,-0.18 0.2,-0.4 0,-0.22 0.09,-0.4 0.2,-0.4 0.11,0 0.2,-0.27 0.2,-0.6 0,-0.33 0.09,-0.6 0.2,-0.6 0.11,0 0.2,-0.175 0.2,-0.388 0,-0.214 0.09,-0.444 0.2,-0.512 0.11,-0.068 0.2,-0.343 0.2,-0.612 0,-0.268 0.08,-0.488 0.178,-0.488 0.098,0 0.225,-0.293 0.282,-0.65 0.056,-0.357 0.199,-1.01 0.317,-1.45 0.117,-0.44 0.216,-1.273 0.218,-1.85 0.003,-0.577 0.095,-1.05 0.205,-1.05 0.118,0 0.2,-0.7 0.2,-1.7 0,-1 0.082,-1.7 0.2,-1.7 0.133,0 0.2,-11.4 0.2,-33.8 V 373 h 16.3 c 10.733,0 16.3,-0.068 16.3,-0.2 0,-0.11 0.181,-0.2 0.403,-0.2 0.563,0 1.997,-0.466 1.997,-0.649 0,-0.083 0.27,-0.151 0.6,-0.151 0.33,0 0.6,-0.09 0.6,-0.2 0,-0.11 0.18,-0.2 0.4,-0.2 0.22,0 0.4,-0.09 0.4,-0.2 0,-0.11 0.118,-0.2 0.262,-0.2 0.145,0 0.442,-0.157 0.661,-0.35 0.446,-0.392 0.894,-0.688 1.777,-1.177 0.33,-0.183 0.746,-0.499 0.923,-0.703 0.178,-0.203 0.418,-0.37 0.534,-0.37 0.308,0 3.882,-3.582 4.39,-4.4 0.239,-0.385 0.664,-0.944 0.944,-1.241 0.28,-0.298 0.509,-0.594 0.509,-0.659 0,-0.064 0.18,-0.31 0.4,-0.546 0.22,-0.236 0.4,-0.547 0.4,-0.692 0,-0.144 0.09,-0.262 0.2,-0.262 0.11,0 0.2,-0.18 0.2,-0.4 0,-0.22 0.09,-0.4 0.2,-0.4 0.11,0 0.2,-0.16 0.2,-0.356 0,-0.196 0.18,-0.485 0.4,-0.644 0.235,-0.169 0.4,-0.518 0.4,-0.844 0,-0.306 0.09,-0.556 0.2,-0.556 0.11,0 0.2,-0.18 0.2,-0.4 0,-0.22 0.09,-0.4 0.2,-0.4 0.11,0 0.2,-0.22 0.2,-0.488 0,-0.269 0.09,-0.544 0.2,-0.612 0.11,-0.068 0.2,-0.433 0.2,-0.812 0,-0.378 0.09,-0.688 0.2,-0.688 0.114,0 0.2,-0.596 0.2,-1.388 0,-0.764 0.09,-1.444 0.2,-1.512 0.133,-0.082 0.2,-29.631 0.2,-88 0,-58.369 0.067,-87.918 0.2,-88 0.11,-0.068 0.2,-0.354 0.2,-0.635 0,-0.281 0.145,-0.973 0.321,-1.538 0.621,-1.984 0.679,-2.264 0.679,-3.291 0,-0.57 0.09,-1.036 0.2,-1.036 0.131,0 0.2,-3.329 0.2,-9.588 0,-6.177 -0.071,-9.632 -0.2,-9.712 -0.11,-0.068 -0.2,-0.73 -0.2,-1.472 0,-0.79 -0.1,-1.448 -0.243,-1.591 -0.352,-0.352 -0.359,-9.515 -0.007,-9.867 0.138,-0.137 0.25,-0.587 0.25,-0.998 0,-0.412 0.09,-0.804 0.2,-0.872 0.11,-0.068 0.2,-0.433 0.2,-0.812 0,-0.378 0.068,-0.689 0.15,-0.69 0.224,-0.002 0.65,-1.011 0.65,-1.538 0,-0.253 0.09,-0.46 0.2,-0.46 0.11,0 0.2,-0.36 0.2,-0.8 0,-0.44 0.09,-0.8 0.2,-0.8 0.11,0 0.2,-0.274 0.2,-0.608 0,-0.335 0.18,-0.802 0.4,-1.038 0.22,-0.236 0.4,-0.632 0.4,-0.88 0,-0.248 0.09,-0.506 0.2,-0.574 0.11,-0.068 0.2,-0.433 0.2,-0.812 0,-0.378 0.09,-0.688 0.2,-0.688 0.11,0 0.2,-0.258 0.2,-0.573 0,-0.315 0.18,-0.802 0.4,-1.082 0.22,-0.279 0.4,-0.691 0.4,-0.915 0,-0.223 0.09,-0.462 0.2,-0.53 0.11,-0.068 0.2,-0.359 0.2,-0.646 0,-0.287 0.158,-0.696 0.35,-0.909 0.47,-0.519 0.636,-3.799 0.212,-4.19 -0.775,-0.713 -2.551,-1.058 -2.862,-0.555 -0.068,0.11 -0.265,0.2 -0.438,0.2 -0.173,0 -0.462,0.169 -0.641,0.376 -0.611,0.705 -2.063,1.024 -4.656,1.024 -2.696,0 -2.946,-0.113 -2.959,-1.338 -0.003,-0.351 -0.086,-0.688 -0.184,-0.748 -0.098,-0.061 -0.219,-0.404 -0.27,-0.762 -0.127,-0.897 -0.562,-2.579 -0.776,-2.999 -0.097,-0.191 -0.176,-0.523 -0.176,-0.738 0,-0.215 -0.09,-0.447 -0.2,-0.515 -0.11,-0.068 -0.2,-0.338 -0.2,-0.6 0,-0.262 -0.09,-0.532 -0.2,-0.6 -0.11,-0.068 -0.2,-0.3 -0.2,-0.515 0,-0.215 -0.104,-0.592 -0.231,-0.838 -0.498,-0.963 -0.569,-1.155 -0.569,-1.544 0,-0.222 -0.09,-0.403 -0.2,-0.403 -0.11,0 -0.2,-0.177 -0.2,-0.394 0,-0.217 -0.18,-0.714 -0.4,-1.106 -0.22,-0.392 -0.4,-0.889 -0.4,-1.106 0,-0.217 -0.09,-0.394 -0.2,-0.394 -0.11,0 -0.2,-0.18 -0.2,-0.4 0,-0.22 -0.09,-0.4 -0.2,-0.4 -0.11,0 -0.2,-0.27 -0.2,-0.6 0,-0.33 -0.09,-0.6 -0.2,-0.6 -0.11,0 -0.2,-0.18 -0.2,-0.4 0,-0.22 -0.09,-0.4 -0.2,-0.4 -0.11,0 -0.2,-0.18 -0.2,-0.4 0,-0.22 -0.09,-0.4 -0.2,-0.4 -0.11,0 -0.2,-0.18 -0.2,-0.4 0,-0.22 -0.09,-0.4 -0.2,-0.4 -0.11,0 -0.2,-0.18 -0.2,-0.4 0,-0.22 -0.09,-0.4 -0.2,-0.4 -0.11,0 -0.2,-0.225 -0.2,-0.5 0,-0.275 -0.09,-0.5 -0.2,-0.5 -0.11,0 -0.2,-0.144 -0.2,-0.321 0,-0.364 -1.409,-3.144 -1.645,-3.246 -0.085,-0.036 -0.155,-0.239 -0.155,-0.45 0,-0.21 -0.09,-0.383 -0.2,-0.383 -0.11,0 -0.2,-0.18 -0.2,-0.4 0,-0.22 -0.068,-0.4 -0.151,-0.4 -0.083,0 -0.279,-0.292 -0.435,-0.65 -0.156,-0.357 -0.448,-0.796 -0.649,-0.973 -0.201,-0.178 -0.365,-0.471 -0.365,-0.65 0,-0.18 -0.09,-0.327 -0.2,-0.327 -0.11,0 -0.2,-0.16 -0.2,-0.356 0,-0.196 -0.18,-0.485 -0.4,-0.644 -0.22,-0.159 -0.4,-0.448 -0.4,-0.644 0,-0.196 -0.09,-0.356 -0.2,-0.356 -0.11,0 -0.2,-0.16 -0.2,-0.356 0,-0.196 -0.18,-0.485 -0.4,-0.644 -0.22,-0.159 -0.4,-0.448 -0.4,-0.644 0,-0.196 -0.07,-0.356 -0.155,-0.356 -0.085,0 -0.324,-0.315 -0.531,-0.7 C 309.507,83.315 309.261,83 309.169,83 309.076,83 309,82.84 309,82.644 c 0,-0.196 -0.18,-0.485 -0.4,-0.644 -0.22,-0.159 -0.4,-0.429 -0.4,-0.6 0,-0.171 -0.18,-0.441 -0.4,-0.6 -0.22,-0.159 -0.4,-0.412 -0.4,-0.564 0,-0.151 -0.27,-0.528 -0.6,-0.836 -0.33,-0.308 -0.6,-0.668 -0.6,-0.8 0,-0.132 -0.27,-0.492 -0.6,-0.8 -0.33,-0.308 -0.6,-0.623 -0.6,-0.7 0,-0.077 -0.27,-0.392 -0.6,-0.7 -0.33,-0.308 -0.6,-0.663 -0.6,-0.789 0,-0.234 -0.101,-0.371 -1.05,-1.436 -0.303,-0.34 -0.55,-0.696 -0.55,-0.792 0,-0.096 -0.495,-0.669 -1.1,-1.274 -0.605,-0.605 -1.1,-1.148 -1.1,-1.207 0,-0.212 -6.263,-6.543 -9.301,-9.402 -1.052,-0.99 -2.292,-2.161 -2.756,-2.603 -0.464,-0.441 -1.158,-1.024 -1.543,-1.294 -0.889,-0.625 -1.109,-0.8 -1.701,-1.353 -0.264,-0.248 -0.576,-0.45 -0.693,-0.45 -0.117,0 -0.514,-0.292 -0.881,-0.65 -1.073,-1.044 -1.919,-1.75 -2.099,-1.75 -0.092,0 -0.449,-0.27 -0.795,-0.6 -0.345,-0.33 -0.722,-0.6 -0.838,-0.6 -0.116,0 -0.436,-0.225 -0.711,-0.5 -0.275,-0.275 -0.58,-0.5 -0.677,-0.5 -0.097,0 -0.295,-0.113 -0.441,-0.25 -0.385,-0.366 -1.928,-1.35 -2.116,-1.35 -0.088,0 -0.289,-0.18 -0.448,-0.4 -0.159,-0.22 -0.407,-0.4 -0.553,-0.4 -0.145,0 -0.457,-0.18 -0.693,-0.4 -0.236,-0.22 -0.547,-0.4 -0.692,-0.4 -0.144,0 -0.262,-0.09 -0.262,-0.2 0,-0.11 -0.16,-0.2 -0.356,-0.2 -0.196,0 -0.485,-0.18 -0.644,-0.4 -0.159,-0.22 -0.448,-0.4 -0.644,-0.4 -0.196,0 -0.356,-0.09 -0.356,-0.2 0,-0.11 -0.16,-0.2 -0.356,-0.2 -0.196,0 -0.485,-0.18 -0.644,-0.4 -0.159,-0.22 -0.403,-0.4 -0.544,-0.4 -0.141,0 -0.256,-0.09 -0.256,-0.2 0,-0.11 -0.18,-0.2 -0.4,-0.2 -0.22,0 -0.4,-0.072 -0.4,-0.159 0,-0.216 -2.83,-1.641 -3.259,-1.641 -0.187,0 -0.341,-0.09 -0.341,-0.2 0,-0.11 -0.139,-0.2 -0.308,-0.2 -0.17,0 -0.502,-0.18 -0.738,-0.4 -0.236,-0.22 -0.547,-0.4 -0.692,-0.4 -0.144,0 -0.262,-0.09 -0.262,-0.2 0,-0.11 -0.18,-0.2 -0.4,-0.2 -0.22,0 -0.4,-0.09 -0.4,-0.2 0,-0.11 -0.135,-0.2 -0.3,-0.2 -0.165,0 -0.3,-0.09 -0.3,-0.2 0,-0.11 0.09,-0.2 0.2,-0.2 0.11,0 0.2,-0.18 0.2,-0.4 0,-0.22 0.079,-0.4 0.176,-0.4 0.096,0 0.287,-0.27 0.424,-0.6 0.137,-0.33 0.328,-0.6 0.424,-0.6 0.097,0 0.176,-0.18 0.176,-0.4 0,-0.22 0.09,-0.4 0.2,-0.4 0.11,0 0.2,-0.174 0.2,-0.386 0,-0.212 0.118,-0.504 0.262,-0.65 0.145,-0.145 0.392,-0.556 0.549,-0.914 0.158,-0.358 0.355,-0.65 0.438,-0.65 0.083,0 0.151,-0.16 0.151,-0.356 0,-0.196 0.18,-0.485 0.4,-0.644 0.22,-0.159 0.4,-0.448 0.4,-0.644 0,-0.196 0.09,-0.356 0.2,-0.356 0.11,0 0.2,-0.18 0.2,-0.4 0,-0.22 0.09,-0.4 0.2,-0.4 0.11,0 0.2,-0.118 0.2,-0.262 0,-0.145 0.18,-0.456 0.4,-0.692 0.22,-0.236 0.4,-0.568 0.4,-0.738 0,-0.169 0.09,-0.308 0.2,-0.308 0.11,0 0.2,-0.139 0.2,-0.308 0,-0.17 0.18,-0.502 0.4,-0.738 0.22,-0.236 0.512,-0.682 0.649,-0.992 0.137,-0.309 0.317,-0.562 0.4,-0.562 0.083,0 0.151,-0.18 0.151,-0.4 0,-0.22 0.073,-0.4 0.163,-0.4 0.199,0 0.837,-1.301 0.837,-1.707 0,-0.161 0.09,-0.293 0.2,-0.293 0.11,0 0.2,-0.16 0.2,-0.356 0,-0.196 0.18,-0.485 0.4,-0.644 0.22,-0.159 0.4,-0.448 0.4,-0.644 0,-0.196 0.09,-0.356 0.2,-0.356 0.11,0 0.2,-0.135 0.2,-0.3 0,-0.165 0.09,-0.3 0.2,-0.3 0.11,0 0.2,-0.139 0.2,-0.308 0,-0.17 0.18,-0.502 0.4,-0.738 0.22,-0.236 0.4,-0.547 0.4,-0.692 0,-0.144 0.09,-0.262 0.2,-0.262 0.11,0 0.2,-0.18 0.2,-0.4 0,-0.22 0.09,-0.4 0.2,-0.4 0.11,0 0.2,-0.16 0.2,-0.356 0,-0.196 0.18,-0.485 0.4,-0.644 0.22,-0.159 0.4,-0.448 0.4,-0.644 0,-0.196 0.09,-0.356 0.2,-0.356 0.11,0 0.2,-0.18 0.2,-0.4 0,-0.22 0.079,-0.4 0.176,-0.4 0.096,0 0.287,-0.27 0.424,-0.6 0.137,-0.33 0.305,-0.601 0.374,-0.603 0.069,-10e-4 0.396,-0.586 0.726,-1.3 0.33,-0.713 0.668,-1.297 0.75,-1.297 0.082,0 0.15,-0.18 0.15,-0.4 0,-0.22 0.09,-0.4 0.2,-0.4 0.11,0 0.2,-0.16 0.2,-0.356 0,-0.196 0.18,-0.485 0.4,-0.644 0.22,-0.159 0.4,-0.448 0.4,-0.644 0,-0.196 0.068,-0.356 0.151,-0.356 0.083,0 0.281,-0.293 0.439,-0.65 0.158,-0.358 0.45,-0.824 0.649,-1.038 0.198,-0.213 0.361,-0.505 0.361,-0.65 0,-0.144 0.09,-0.262 0.2,-0.262 0.11,0 0.2,-0.18 0.2,-0.4 0,-0.22 0.09,-0.4 0.2,-0.4 0.11,0 0.2,-0.139 0.2,-0.308 0,-0.17 0.18,-0.502 0.4,-0.738 0.22,-0.236 0.4,-0.547 0.4,-0.692 0,-0.144 0.09,-0.262 0.2,-0.262 0.11,0 0.2,-0.18 0.2,-0.4 0,-0.22 0.068,-0.401 0.15,-0.402 0.848,-0.008 0.871,-3.031 0.029,-3.818 -1.302,-1.216 -4.979,-0.552 -4.979,0.9 0,0.176 -0.076,0.32 -0.17,0.32 -0.093,0 -0.337,0.405 -0.541,0.9 -0.204,0.495 -0.443,0.9 -0.53,0.9 -0.087,0 -0.159,0.16 -0.159,0.356 0,0.196 -0.18,0.485 -0.4,0.644 -0.22,0.159 -0.4,0.448 -0.4,0.644 0,0.196 -0.09,0.356 -0.2,0.356 -0.11,0 -0.2,0.18 -0.2,0.4 0,0.22 -0.09,0.4 -0.2,0.4 -0.11,0 -0.2,0.118 -0.2,0.262 0,0.145 -0.18,0.456 -0.4,0.692 -0.22,0.236 -0.4,0.568 -0.4,0.738 0,0.169 -0.09,0.308 -0.2,0.308 -0.11,0 -0.2,0.139 -0.2,0.308 0,0.17 -0.18,0.502 -0.4,0.738 -0.22,0.236 -0.4,0.547 -0.4,0.692 0,0.144 -0.09,0.262 -0.2,0.262 -0.11,0 -0.2,0.135 -0.2,0.3 0,0.165 -0.09,0.3 -0.2,0.3 -0.11,0 -0.2,0.18 -0.2,0.4 0,0.22 -0.068,0.4 -0.15,0.4 -0.083,0 -0.511,0.698 -0.95,1.55 -0.44,0.853 -0.868,1.58 -0.95,1.617 -0.082,0.036 -0.15,0.239 -0.15,0.45 0,0.211 -0.09,0.383 -0.2,0.383 -0.11,0 -0.2,0.16 -0.2,0.356 0,0.196 -0.18,0.485 -0.4,0.644 -0.22,0.159 -0.4,0.403 -0.4,0.544 0,0.141 -0.09,0.256 -0.2,0.256 -0.11,0 -0.2,0.18 -0.2,0.4 0,0.22 -0.09,0.4 -0.2,0.4 -0.11,0 -0.2,0.16 -0.2,0.356 0,0.196 -0.18,0.485 -0.4,0.644 -0.22,0.159 -0.4,0.448 -0.4,0.644 0,0.196 -0.09,0.356 -0.2,0.356 -0.11,0 -0.2,0.18 -0.2,0.4 0,0.22 -0.09,0.4 -0.2,0.4 -0.11,0 -0.2,0.118 -0.2,0.262 0,0.145 -0.18,0.456 -0.4,0.692 -0.22,0.236 -0.4,0.568 -0.4,0.738 0,0.169 -0.067,0.309 -0.15,0.31 -0.082,0 -0.25,0.203 -0.373,0.45 -0.123,0.246 -0.46,0.88 -0.75,1.409 -0.29,0.528 -0.527,1.071 -0.527,1.205 0,0.135 -0.18,0.375 -0.4,0.534 -0.22,0.159 -0.4,0.448 -0.4,0.644 0,0.196 -0.09,0.356 -0.2,0.356 -0.11,0 -0.2,0.139 -0.2,0.308 0,0.17 -0.18,0.502 -0.4,0.738 -0.22,0.236 -0.4,0.547 -0.4,0.692 0,0.144 -0.09,0.262 -0.2,0.262 -0.11,0 -0.2,0.135 -0.2,0.3 0,0.165 -0.09,0.3 -0.2,0.3 -0.11,0 -0.2,0.18 -0.2,0.4 0,0.22 -0.09,0.4 -0.2,0.4 -0.11,0 -0.2,0.135 -0.2,0.3 0,0.165 -0.09,0.3 -0.2,0.3 -0.11,0 -0.2,0.135 -0.2,0.3 0,0.165 -0.09,0.3 -0.2,0.3 -0.11,0 -0.2,0.18 -0.2,0.4 0,0.22 -0.09,0.4 -0.2,0.4 -0.11,0 -0.2,0.139 -0.2,0.308 0,0.17 -0.18,0.502 -0.4,0.738 -0.22,0.236 -0.4,0.547 -0.4,0.692 0,0.144 -0.09,0.262 -0.2,0.262 -0.11,0 -0.2,0.18 -0.2,0.4 0,0.22 -0.07,0.4 -0.155,0.4 -0.086,0 -0.333,0.404 -0.55,0.898 -0.217,0.494 -0.462,0.899 -0.545,0.9 -0.082,10e-4 -0.15,0.182 -0.15,0.402 0,0.434 -1.055,0.597 -1.3,0.2 -0.068,-0.11 -0.343,-0.2 -0.612,-0.2 -0.268,0 -0.488,-0.09 -0.488,-0.2 0,-0.11 -0.18,-0.2 -0.4,-0.2 -0.22,0 -0.4,-0.072 -0.4,-0.16 0,-0.089 -0.589,-0.329 -1.31,-0.535 -0.72,-0.206 -1.355,-0.449 -1.412,-0.54 -0.056,-0.091 -0.321,-0.165 -0.59,-0.165 -0.268,0 -0.488,-0.09 -0.488,-0.2 0,-0.11 -0.27,-0.2 -0.6,-0.2 -0.33,0 -0.6,-0.09 -0.6,-0.2 0,-0.11 -0.225,-0.2 -0.5,-0.2 -0.275,0 -0.5,-0.09 -0.5,-0.2 0,-0.11 -0.225,-0.2 -0.5,-0.2 -0.275,0 -0.5,-0.09 -0.5,-0.2 0,-0.11 -0.27,-0.2 -0.6,-0.2 -0.33,0 -0.6,-0.09 -0.6,-0.2 0,-0.11 -0.27,-0.2 -0.6,-0.2 -0.33,0 -0.6,-0.09 -0.6,-0.2 0,-0.11 -0.27,-0.2 -0.6,-0.2 -0.33,0 -0.6,-0.09 -0.6,-0.2 0,-0.11 -0.315,-0.2 -0.7,-0.2 -0.385,0 -0.7,-0.09 -0.7,-0.2 0,-0.11 -0.27,-0.2 -0.6,-0.2 -0.33,0 -0.6,-0.09 -0.6,-0.2 0,-0.11 -0.265,-0.2 -0.588,-0.2 -0.324,0 -0.644,-0.09 -0.712,-0.2 -0.068,-0.11 -0.433,-0.2 -0.812,-0.2 -0.378,0 -0.688,-0.09 -0.688,-0.2 0,-0.11 -0.315,-0.2 -0.7,-0.2 -0.385,0 -0.7,-0.09 -0.7,-0.2 0,-0.11 -0.31,-0.2 -0.688,-0.2 -0.379,0 -0.744,-0.09 -0.812,-0.2 -0.068,-0.11 -0.478,-0.2 -0.912,-0.2 -0.433,0 -0.788,-0.09 -0.788,-0.2 0,-0.11 -0.316,-0.2 -0.703,-0.2 -0.386,0 -0.859,-0.082 -1.05,-0.182 -0.493,-0.259 -3.784,-0.821 -4.797,-0.819 -0.468,0 -0.85,-0.089 -0.85,-0.199 0,-0.11 -0.495,-0.2 -1.1,-0.2 -0.605,0 -1.1,-0.09 -1.1,-0.2 0,-0.111 -0.533,-0.2 -1.2,-0.2 -0.667,0 -1.2,-0.089 -1.2,-0.2 0,-0.117 -0.667,-0.2 -1.6,-0.2 -0.933,0 -1.6,-0.083 -1.6,-0.2 0,-0.118 -0.7,-0.2 -1.7,-0.2 -1,0 -1.7,-0.082 -1.7,-0.2 0,-0.123 -0.967,-0.2 -2.5,-0.2 -1.533,0 -2.5,-0.077 -2.5,-0.2 0,-0.275 -17.33,-0.275 -17.5,0 -0.071,0.115 -1.131,0.2 -2.5,0.2 -1.369,0 -2.429,0.085 -2.5,0.2 -0.068,0.11 -0.883,0.2 -1.812,0.2 -0.992,0 -1.688,0.082 -1.688,0.2 0,0.116 -0.633,0.2 -1.5,0.2 -0.867,0 -1.5,0.084 -1.5,0.2 0,0.113 -0.567,0.2 -1.3,0.2 -0.733,0 -1.3,0.087 -1.3,0.2 0,0.11 -0.495,0.2 -1.1,0.2 -0.605,0 -1.1,0.077 -1.1,0.171 0,0.094 -0.667,0.227 -1.482,0.296 -1.424,0.12 -2.728,0.363 -4.032,0.75 -0.338,0.101 -0.901,0.183 -1.25,0.183 -0.35,0 -0.636,0.09 -0.636,0.2 0,0.11 -0.36,0.2 -0.8,0.2 -0.44,0 -0.8,0.09 -0.8,0.2 0,0.11 -0.31,0.2 -0.688,0.2 -0.379,0 -0.744,0.09 -0.812,0.2 -0.068,0.11 -0.433,0.2 -0.812,0.2 -0.378,0 -0.688,0.09 -0.688,0.2 0,0.11 -0.27,0.2 -0.6,0.2 -0.33,0 -0.6,0.09 -0.6,0.2 0,0.11 -0.36,0.2 -0.8,0.2 -0.44,0 -0.8,0.09 -0.8,0.2 0,0.11 -0.27,0.2 -0.6,0.2 -0.33,0 -0.6,0.09 -0.6,0.2 0,0.11 -0.27,0.2 -0.6,0.2 -0.33,0 -0.6,0.09 -0.6,0.2 0,0.11 -0.315,0.2 -0.7,0.2 -0.385,0 -0.7,0.09 -0.7,0.2 0,0.11 -0.22,0.2 -0.488,0.2 -0.269,0 -0.544,0.09 -0.612,0.2 -0.068,0.11 -0.298,0.2 -0.512,0.2 -0.213,0 -0.388,0.09 -0.388,0.2 0,0.11 -0.27,0.2 -0.6,0.2 -0.33,0 -0.6,0.09 -0.6,0.2 0,0.11 -0.27,0.2 -0.6,0.2 -0.33,0 -0.6,0.09 -0.6,0.2 0,0.11 -0.22,0.2 -0.488,0.2 -0.269,0 -0.537,0.078 -0.596,0.174 -0.059,0.096 -0.694,0.342 -1.412,0.547 -0.717,0.206 -1.304,0.443 -1.304,0.527 0,0.083 -0.22,0.152 -0.488,0.152 -0.269,0 -0.544,0.09 -0.612,0.2 -0.068,0.11 -0.298,0.2 -0.512,0.2 -0.213,0 -0.388,0.09 -0.388,0.2 0,0.11 -0.175,0.2 -0.388,0.2 -0.214,0 -0.437,0.079 -0.497,0.176 -0.195,0.315 -1.115,0.394 -1.115,0.096 0,-0.149 -0.073,-0.272 -0.162,-0.272 -0.09,0 -0.514,-0.675 -0.945,-1.5 -0.43,-0.825 -0.852,-1.5 -0.937,-1.5 -0.086,0 -0.156,-0.18 -0.156,-0.4 0,-0.22 -0.09,-0.4 -0.2,-0.4 -0.11,0 -0.2,-0.18 -0.2,-0.4 0,-0.22 -0.09,-0.4 -0.2,-0.4 -0.11,0 -0.2,-0.118 -0.2,-0.262 0,-0.145 -0.18,-0.456 -0.4,-0.692 -0.22,-0.236 -0.4,-0.568 -0.4,-0.738 0,-0.169 -0.068,-0.308 -0.151,-0.308 -0.083,0 -0.263,-0.253 -0.4,-0.562 -0.137,-0.31 -0.429,-0.756 -0.649,-0.992 -0.22,-0.236 -0.4,-0.568 -0.4,-0.738 0,-0.169 -0.09,-0.308 -0.2,-0.308 -0.11,0 -0.2,-0.16 -0.2,-0.356 0,-0.196 -0.18,-0.485 -0.4,-0.644 -0.22,-0.159 -0.4,-0.448 -0.4,-0.644 0,-0.196 -0.09,-0.356 -0.2,-0.356 -0.11,0 -0.2,-0.172 -0.2,-0.383 0,-0.211 -0.067,-0.414 -0.15,-0.45 -0.082,-0.037 -0.42,-0.607 -0.75,-1.267 -0.33,-0.66 -0.707,-1.313 -0.837,-1.451 -0.13,-0.138 -0.294,-0.431 -0.363,-0.65 -0.07,-0.22 -0.211,-0.399 -0.313,-0.399 -0.103,0 -0.187,-0.18 -0.187,-0.4 0,-0.22 -0.09,-0.4 -0.2,-0.4 -0.11,0 -0.2,-0.16 -0.2,-0.356 0,-0.196 -0.18,-0.485 -0.4,-0.644 -0.22,-0.159 -0.4,-0.448 -0.4,-0.644 0,-0.196 -0.09,-0.356 -0.2,-0.356 -0.11,0 -0.2,-0.18 -0.2,-0.4 0,-0.22 -0.09,-0.4 -0.2,-0.4 -0.11,0 -0.2,-0.135 -0.2,-0.3 0,-0.165 -0.09,-0.3 -0.2,-0.3 -0.11,0 -0.2,-0.135 -0.2,-0.3 0,-0.165 -0.073,-0.3 -0.163,-0.3 -0.089,0 -0.286,-0.315 -0.437,-0.7 -0.151,-0.385 -0.348,-0.7 -0.437,-0.7 -0.09,0 -0.163,-0.118 -0.163,-0.262 0,-0.145 -0.18,-0.456 -0.4,-0.692 -0.22,-0.236 -0.4,-0.52 -0.4,-0.631 0,-0.336 -0.663,-1.615 -0.837,-1.615 -0.09,0 -0.163,-0.18 -0.163,-0.4 0,-0.22 -0.09,-0.4 -0.2,-0.4 -0.11,0 -0.2,-0.096 -0.2,-0.214 0,-0.118 -0.27,-0.606 -0.6,-1.086 -0.33,-0.48 -0.6,-0.968 -0.6,-1.086 0,-0.118 -0.09,-0.214 -0.2,-0.214 -0.11,0 -0.2,-0.139 -0.2,-0.308 0,-0.17 -0.18,-0.502 -0.4,-0.738 -0.22,-0.236 -0.4,-0.547 -0.4,-0.692 0,-0.144 -0.09,-0.262 -0.2,-0.262 -0.11,0 -0.2,-0.18 -0.2,-0.4 0,-0.22 -0.09,-0.4 -0.2,-0.4 -0.11,0 -0.2,-0.16 -0.2,-0.356 0,-0.196 -0.18,-0.485 -0.4,-0.644 -0.22,-0.159 -0.4,-0.448 -0.4,-0.644 0,-0.196 -0.09,-0.356 -0.2,-0.356 -0.11,0 -0.2,-0.18 -0.2,-0.4 C 124.4,4.18 124.31,4 124.2,4 124.09,4 124,3.865 124,3.7 124,3.535 123.926,3.4 123.835,3.4 123.745,3.4 123.33,2.719 122.913,1.886 122.033,0.131 121.812,0 119.718,0 c -1.135,0 -1.552,0.082 -1.887,0.373 M 141.6,77.6 c 0,0.11 0.36,0.2 0.8,0.2 0.44,0 0.8,0.09 0.8,0.2 0,0.11 0.225,0.2 0.5,0.2 0.275,0 0.5,0.09 0.5,0.2 0,0.11 0.16,0.2 0.356,0.2 0.196,0 0.485,0.18 0.644,0.4 0.159,0.22 0.412,0.4 0.564,0.4 0.151,0 0.528,0.27 0.836,0.6 0.308,0.33 0.655,0.6 0.77,0.6 0.115,0 0.461,0.338 0.768,0.75 0.306,0.413 0.716,0.896 0.91,1.073 0.194,0.178 0.352,0.426 0.352,0.55 0,0.125 0.078,0.227 0.173,0.227 0.202,0 0.827,1.555 0.827,2.057 0,0.189 0.09,0.343 0.2,0.343 0.11,0 0.2,0.297 0.2,0.66 0,0.363 0.096,0.756 0.214,0.874 0.476,0.476 0.06,4.473 -0.623,5.994 -0.205,0.455 -0.431,1.063 -0.503,1.35 -0.072,0.287 -0.212,0.522 -0.31,0.522 -0.098,0 -0.181,0.158 -0.185,0.35 -0.003,0.193 -0.431,0.728 -0.95,1.19 -0.518,0.462 -1.298,1.16 -1.732,1.55 -0.434,0.391 -0.907,0.71 -1.05,0.71 -0.144,0 -0.261,0.09 -0.261,0.2 0,0.11 -0.18,0.2 -0.4,0.2 -0.22,0 -0.4,0.09 -0.4,0.2 0,0.11 -0.18,0.2 -0.4,0.2 -0.22,0 -0.4,0.09 -0.4,0.2 0,0.11 -0.225,0.2 -0.5,0.2 -0.275,0 -0.5,0.09 -0.5,0.2 0,0.11 -0.45,0.2 -1,0.2 -0.55,0 -1,0.09 -1,0.2 0,0.111 -0.533,0.2 -1.2,0.2 -0.667,0 -1.2,-0.089 -1.2,-0.2 0,-0.11 -0.45,-0.2 -1,-0.2 -0.55,0 -1,-0.09 -1,-0.2 0,-0.11 -0.225,-0.2 -0.5,-0.2 -0.275,0 -0.5,-0.09 -0.5,-0.2 0,-0.11 -0.18,-0.2 -0.4,-0.2 -0.22,0 -0.4,-0.09 -0.4,-0.2 0,-0.11 -0.18,-0.2 -0.4,-0.2 -0.22,0 -0.4,-0.09 -0.4,-0.2 0,-0.11 -0.138,-0.2 -0.307,-0.2 -0.168,0 -0.605,-0.292 -0.97,-0.65 -0.365,-0.357 -1.033,-0.965 -1.483,-1.35 -0.451,-0.385 -0.973,-1.037 -1.16,-1.45 -0.187,-0.412 -0.417,-0.75 -0.51,-0.75 -0.094,0 -0.17,-0.18 -0.17,-0.4 0,-0.22 -0.09,-0.4 -0.2,-0.4 -0.11,0 -0.2,-0.22 -0.2,-0.488 0,-0.269 -0.09,-0.544 -0.2,-0.612 -0.11,-0.068 -0.2,-0.388 -0.2,-0.712 0,-0.323 -0.09,-0.588 -0.2,-0.588 -0.122,0 -0.2,-0.9 -0.2,-2.3 0,-1.4 0.078,-2.3 0.2,-2.3 0.11,0 0.2,-0.27 0.2,-0.6 0,-0.33 0.09,-0.6 0.2,-0.6 0.11,0 0.2,-0.27 0.2,-0.6 0,-0.33 0.09,-0.6 0.2,-0.6 0.11,0 0.2,-0.18 0.2,-0.4 0,-0.22 0.07,-0.4 0.155,-0.4 0.085,0 0.324,-0.315 0.531,-0.7 0.207,-0.385 0.453,-0.7 0.545,-0.7 0.093,0 0.169,-0.126 0.169,-0.28 0,-0.323 1.338,-1.72 1.647,-1.72 0.113,0 0.352,-0.158 0.53,-0.351 0.177,-0.194 0.57,-0.479 0.873,-0.634 0.303,-0.155 0.55,-0.357 0.55,-0.449 0,-0.091 0.18,-0.166 0.4,-0.166 0.22,0 0.4,-0.09 0.4,-0.2 0,-0.11 0.22,-0.2 0.488,-0.2 0.269,0 0.544,-0.09 0.612,-0.2 0.068,-0.11 0.383,-0.2 0.7,-0.2 0.317,0 0.632,-0.09 0.7,-0.2 0.069,-0.112 1.002,-0.2 2.112,-0.2 1.192,0 1.988,0.08 1.988,0.2 m 121.2,0 c 0,0.11 0.27,0.2 0.6,0.2 0.33,0 0.6,0.09 0.6,0.2 0,0.11 0.225,0.2 0.5,0.2 0.275,0 0.5,0.09 0.5,0.2 0,0.11 0.18,0.2 0.4,0.2 0.22,0 0.4,0.09 0.4,0.2 0,0.11 0.16,0.2 0.356,0.2 0.196,0 0.485,0.18 0.644,0.4 0.159,0.22 0.405,0.4 0.548,0.4 0.285,0 2.219,1.893 2.57,2.514 1.005,1.778 1.282,2.34 1.282,2.593 0,0.161 0.09,0.293 0.2,0.293 0.11,0 0.2,0.27 0.2,0.6 0,0.33 0.09,0.6 0.2,0.6 0.123,0 0.2,1.033 0.2,2.7 0,1.667 -0.077,2.7 -0.2,2.7 -0.11,0 -0.2,0.27 -0.2,0.6 0,0.33 -0.09,0.6 -0.2,0.6 -0.11,0 -0.2,0.12 -0.2,0.266 0,1.039 -2.728,4.734 -3.495,4.734 -0.119,0 -0.346,0.18 -0.505,0.4 -0.159,0.22 -0.448,0.4 -0.644,0.4 -0.196,0 -0.357,0.068 -0.358,0.15 -10e-4,0.18 -0.97,0.65 -1.338,0.65 -0.143,0 -0.26,0.09 -0.26,0.2 0,0.11 -0.225,0.2 -0.5,0.2 -0.275,0 -0.5,0.09 -0.5,0.2 0,0.11 -0.45,0.2 -1,0.2 -0.55,0 -1,0.09 -1,0.2 0,0.111 -0.533,0.2 -1.2,0.2 -0.667,0 -1.2,-0.089 -1.2,-0.2 0,-0.11 -0.45,-0.2 -1,-0.2 -0.55,0 -1,-0.09 -1,-0.2 0,-0.11 -0.175,-0.2 -0.388,-0.2 -0.214,0 -0.444,-0.09 -0.512,-0.2 -0.068,-0.11 -0.298,-0.2 -0.512,-0.2 -0.213,0 -0.388,-0.09 -0.388,-0.2 0,-0.11 -0.16,-0.2 -0.356,-0.2 -0.196,0 -0.485,-0.18 -0.644,-0.4 -0.159,-0.22 -0.406,-0.4 -0.551,-0.4 -0.144,0 -0.557,-0.292 -0.916,-0.65 -0.36,-0.358 -0.941,-0.875 -1.292,-1.15 -0.35,-0.275 -0.638,-0.624 -0.639,-0.777 -0.001,-0.152 -0.159,-0.422 -0.352,-0.6 -0.379,-0.35 -0.836,-1.394 -0.996,-2.275 -0.055,-0.304 -0.18,-0.602 -0.277,-0.662 -0.097,-0.06 -0.177,-0.414 -0.177,-0.786 0,-0.372 -0.09,-0.732 -0.2,-0.8 -0.11,-0.068 -0.2,-0.743 -0.2,-1.5 0,-0.757 0.09,-1.432 0.2,-1.5 0.11,-0.068 0.2,-0.473 0.2,-0.9 0,-0.427 0.08,-0.826 0.177,-0.886 0.097,-0.06 0.222,-0.358 0.277,-0.662 0.14,-0.77 0.589,-1.875 0.946,-2.325 0.84,-1.059 3.422,-3.527 3.691,-3.527 0.17,0 0.309,-0.073 0.309,-0.163 0,-0.089 0.315,-0.286 0.7,-0.437 0.385,-0.151 0.7,-0.348 0.7,-0.437 0,-0.09 0.18,-0.163 0.4,-0.163 0.22,0 0.4,-0.09 0.4,-0.2 0,-0.11 0.36,-0.2 0.8,-0.2 0.44,0 0.8,-0.09 0.8,-0.2 0,-0.121 0.867,-0.2 2.2,-0.2 1.333,0 2.2,0.079 2.2,0.2 m -62.912,11.865 c 1.093,0.695 2.019,1.357 2.058,1.473 0.069,0.207 -2.515,1.929 -3.263,2.175 -2.187,0.718 -2.087,1.243 0.417,2.189 0.994,0.375 2.93,1.709 2.847,1.962 -0.042,0.13 -0.362,0.33 -0.71,0.446 -0.349,0.115 -0.748,0.365 -0.887,0.555 -0.139,0.19 -0.734,0.472 -1.322,0.628 -0.589,0.155 -1.431,0.521 -1.872,0.813 l -0.802,0.53 0.601,0.366 c 0.331,0.201 0.661,0.463 0.735,0.582 0.073,0.119 0.348,0.216 0.61,0.216 0.262,0 0.532,0.09 0.6,0.2 0.068,0.11 0.297,0.2 0.508,0.2 0.535,0 2.633,1.375 2.539,1.664 -0.042,0.13 -0.377,0.335 -0.744,0.456 -0.367,0.122 -0.867,0.414 -1.113,0.65 -0.246,0.237 -0.659,0.431 -0.918,0.432 -0.26,0.002 -0.864,0.227 -1.342,0.5 -0.479,0.274 -0.991,0.498 -1.139,0.498 -0.147,0 -0.322,0.089 -0.39,0.198 -0.181,0.293 2.266,1.802 2.923,1.802 0.309,0 0.988,0.27 1.508,0.6 0.521,0.33 1.109,0.6 1.307,0.6 0.609,0 0.401,0.389 -0.389,0.729 -0.412,0.177 -0.975,0.436 -1.25,0.576 -0.275,0.139 -0.984,0.397 -1.576,0.571 -0.591,0.175 -1.176,0.393 -1.3,0.485 -0.123,0.092 -0.629,0.289 -1.124,0.438 -0.495,0.149 -0.971,0.33 -1.058,0.403 -0.319,0.269 3.069,1.789 4.001,1.795 0.244,0.002 0.869,0.273 1.389,0.603 0.521,0.33 1.116,0.6 1.324,0.6 1.258,0 -2.072,1.737 -3.746,1.954 -0.445,0.057 -0.988,0.226 -1.205,0.375 -0.216,0.149 -0.666,0.273 -1,0.275 -0.333,0.003 -0.83,0.178 -1.105,0.389 l -0.5,0.385 0.744,0.311 c 0.409,0.171 0.833,0.311 0.943,0.311 0.11,0 0.54,0.147 0.956,0.328 1.04,0.45 1.416,0.586 2.457,0.886 0.495,0.144 1.139,0.424 1.431,0.623 0.292,0.2 0.719,0.363 0.95,0.363 0.596,0 0.519,0.37 -0.131,0.624 -0.302,0.118 -0.82,0.339 -1.15,0.491 -0.33,0.151 -1.05,0.377 -1.6,0.502 -0.55,0.124 -1.27,0.347 -1.6,0.495 -0.33,0.148 -1.14,0.33 -1.8,0.404 -1.209,0.135 -1.9,0.371 -1.9,0.648 0,0.278 1.158,0.836 1.736,0.836 0.316,0 0.753,0.119 0.969,0.264 0.217,0.146 1.34,0.563 2.495,0.926 1.155,0.364 2.186,0.74 2.29,0.836 0.105,0.096 0.397,0.174 0.65,0.174 0.589,0 0.595,0.354 0.01,0.591 -0.762,0.309 -4.005,1.267 -4.85,1.433 -0.44,0.086 -1.515,0.294 -2.389,0.463 -2.316,0.446 -2.52,0.771 -0.817,1.297 0.742,0.229 1.542,0.416 1.78,0.416 0.476,0 2.421,0.67 2.792,0.961 0.129,0.102 0.604,0.232 1.056,0.289 0.452,0.057 1.127,0.245 1.5,0.418 0.373,0.172 0.993,0.34 1.378,0.373 l 0.7,0.059 -0.681,0.35 c -0.374,0.193 -0.791,0.35 -0.925,0.35 -0.135,0 -1.089,0.269 -2.119,0.599 -1.031,0.329 -2.242,0.599 -2.692,0.6 -0.449,0 -0.883,0.068 -0.964,0.151 -0.081,0.083 -0.792,0.24 -1.581,0.35 -2.559,0.357 -1.285,1.351 2.562,1.999 0.44,0.074 1.115,0.3 1.5,0.503 0.385,0.202 1.04,0.414 1.456,0.471 0.416,0.057 1.037,0.244 1.381,0.415 0.343,0.172 0.881,0.312 1.194,0.312 0.369,0 0.569,0.104 0.569,0.296 0,0.279 -0.154,0.342 -1.4,0.572 -0.275,0.051 -1.13,0.276 -1.9,0.499 -0.77,0.224 -1.895,0.469 -2.5,0.546 -0.605,0.077 -1.19,0.206 -1.3,0.287 -0.11,0.08 -0.605,0.209 -1.1,0.286 -0.495,0.076 -1.08,0.171 -1.3,0.21 -0.22,0.039 -0.467,0.078 -0.55,0.087 -1.172,0.131 2.747,1.816 4.228,1.818 0.287,0 0.792,0.165 1.123,0.367 0.33,0.201 0.977,0.417 1.438,0.478 0.46,0.062 1.126,0.257 1.48,0.433 0.353,0.177 0.893,0.321 1.2,0.321 1.181,0 0.643,0.651 -0.719,0.869 -0.33,0.052 -1.45,0.329 -2.489,0.613 -1.04,0.285 -2.182,0.518 -2.539,0.518 -0.356,0 -0.698,0.08 -0.759,0.179 -0.109,0.176 -0.869,0.326 -2.773,0.549 -1.022,0.119 -1.176,0.46 -0.324,0.718 0.266,0.081 1.294,0.382 2.284,0.67 0.99,0.287 2.301,0.694 2.913,0.903 0.613,0.21 1.274,0.381 1.469,0.381 0.289,0 2.08,0.472 3.503,0.924 0.424,0.134 -0.317,0.596 -1.185,0.738 -1.083,0.177 -3.3,0.71 -3.893,0.935 -0.293,0.112 -0.837,0.203 -1.208,0.203 -0.372,0 -0.724,0.079 -0.784,0.175 -0.059,0.096 -0.582,0.23 -1.161,0.298 -3.004,0.351 -3.412,0.764 -1.254,1.266 1.558,0.362 3.125,0.807 4.513,1.281 0.613,0.209 1.275,0.38 1.471,0.38 1.074,0 3.744,1.035 3.381,1.31 -0.201,0.153 -0.573,0.28 -0.827,0.284 -0.255,0.003 -0.885,0.13 -1.4,0.281 -1.696,0.498 -2.922,0.784 -4.038,0.94 -0.605,0.085 -1.505,0.26 -2,0.389 -0.495,0.129 -1.328,0.28 -1.85,0.335 -0.599,0.063 -0.95,0.196 -0.95,0.362 0,0.271 1.578,0.899 2.259,0.899 0.213,0 0.804,0.132 1.314,0.293 1.409,0.445 3.235,0.93 4.127,1.095 3.274,0.608 4.292,1.349 2.3,1.674 -0.385,0.063 -1.285,0.258 -2,0.433 -0.715,0.176 -1.885,0.414 -2.6,0.53 -0.715,0.116 -1.48,0.288 -1.7,0.382 -0.22,0.095 -0.805,0.217 -1.3,0.271 -3.575,0.393 -3.699,0.994 -0.3,1.458 0.44,0.06 0.89,0.181 1,0.269 0.11,0.087 0.56,0.22 1,0.295 0.854,0.145 3.896,1.002 4.659,1.313 0.253,0.103 0.667,0.187 0.921,0.187 1.685,0 2.061,0.867 0.462,1.065 -0.463,0.058 -1.427,0.251 -2.142,0.429 -0.715,0.178 -1.93,0.416 -2.7,0.527 -0.77,0.112 -1.676,0.288 -2.014,0.391 -0.338,0.103 -0.985,0.188 -1.438,0.188 -0.454,0 -0.88,0.09 -0.948,0.2 -0.068,0.11 -0.471,0.2 -0.895,0.2 -1.199,0 -1.105,0.445 0.179,0.846 0.614,0.191 1.358,0.349 1.654,0.351 0.296,0.002 0.587,0.081 0.646,0.176 0.059,0.096 0.491,0.226 0.961,0.289 1.022,0.138 2.842,0.571 4.355,1.036 0.605,0.186 1.665,0.475 2.356,0.642 1.442,0.35 1.436,0.746 -0.014,0.925 -0.463,0.058 -1.427,0.251 -2.142,0.429 -0.715,0.178 -1.93,0.416 -2.7,0.527 -0.77,0.112 -1.676,0.288 -2.014,0.391 -0.338,0.103 -0.985,0.188 -1.438,0.188 -0.454,0 -0.88,0.09 -0.948,0.2 -0.068,0.11 -0.441,0.2 -0.828,0.2 -1.426,0 -0.194,0.968 1.47,1.155 0.477,0.054 0.915,0.176 0.974,0.272 0.059,0.095 0.326,0.173 0.593,0.173 0.551,0 1.637,0.254 4.091,0.958 0.935,0.268 2.268,0.641 2.962,0.83 1.401,0.38 1.379,0.68 -0.062,0.876 -0.44,0.06 -1.385,0.253 -2.1,0.43 -0.715,0.176 -1.885,0.414 -2.6,0.528 -0.715,0.114 -1.456,0.291 -1.647,0.393 -0.191,0.102 -0.736,0.185 -1.21,0.185 -0.475,0 -0.949,0.084 -1.053,0.187 -0.105,0.102 -0.549,0.215 -0.988,0.25 -1.724,0.136 -0.441,1.163 1.454,1.163 0.302,0 1.042,0.18 1.644,0.4 0.602,0.22 1.252,0.4 1.444,0.4 0.193,0 1.139,0.235 2.103,0.523 0.964,0.287 2.321,0.676 3.015,0.865 1.368,0.371 1.381,0.669 0.038,0.869 -0.385,0.057 -1.105,0.205 -1.6,0.328 -3.649,0.908 -4.263,1.032 -5.7,1.15 -0.66,0.054 -1.285,0.181 -1.39,0.282 -0.104,0.101 -0.374,0.186 -0.6,0.189 -0.401,0.007 -1.264,0.524 -1.095,0.657 0.047,0.038 0.625,0.179 1.285,0.315 0.66,0.136 1.752,0.421 2.426,0.634 0.675,0.214 1.388,0.388 1.586,0.388 0.321,0 2.545,0.619 3.588,0.999 1.08,0.393 1.871,0.601 2.289,0.601 0.627,0 0.212,0.511 -0.545,0.671 -0.299,0.063 -1.219,0.25 -2.044,0.415 -0.825,0.165 -2.085,0.443 -2.8,0.617 -0.715,0.174 -1.795,0.398 -2.4,0.497 -2.236,0.367 -2.695,0.505 -2.758,0.83 -0.066,0.341 0.848,0.77 1.641,0.77 0.232,0 0.915,0.18 1.517,0.4 0.602,0.22 1.269,0.4 1.483,0.4 0.362,0 2.717,0.657 3.617,1.01 0.22,0.086 0.828,0.274 1.352,0.417 1.475,0.405 1.227,0.611 -1.552,1.293 -0.66,0.162 -1.605,0.374 -2.1,0.47 -0.495,0.097 -1.153,0.273 -1.463,0.393 -0.31,0.119 -0.957,0.217 -1.438,0.217 -0.482,0 -0.92,0.072 -0.975,0.16 -0.054,0.089 -0.554,0.285 -1.111,0.437 -1.477,0.402 -1.316,0.644 0.687,1.028 0.55,0.106 1.36,0.267 1.8,0.359 1.033,0.215 4.297,1.202 4.747,1.436 0.191,0.099 0.523,0.18 0.738,0.18 0.215,0 0.447,0.09 0.515,0.2 0.068,0.11 0.351,0.2 0.628,0.2 0.28,0 0.472,0.099 0.432,0.221 -0.079,0.236 -1.446,0.771 -1.984,0.776 -0.178,0.002 -0.898,0.193 -1.6,0.426 -0.702,0.233 -1.951,0.55 -2.776,0.706 -1.415,0.267 -2.379,0.474 -3.65,0.784 -0.302,0.073 -0.55,0.211 -0.55,0.307 0,0.095 0.248,0.224 0.55,0.288 0.303,0.063 0.91,0.207 1.35,0.321 0.44,0.113 1.07,0.249 1.4,0.302 0.33,0.053 0.78,0.171 1,0.262 0.731,0.304 3.206,1.007 3.544,1.007 0.183,0 0.388,0.09 0.456,0.2 0.068,0.11 0.338,0.2 0.6,0.2 0.262,0 0.532,0.09 0.6,0.2 0.068,0.11 0.351,0.2 0.628,0.2 0.28,0 0.472,0.099 0.432,0.221 -0.08,0.238 -1.448,0.771 -1.992,0.776 -0.183,0.002 -1.158,0.273 -2.168,0.603 -1.01,0.33 -2.032,0.6 -2.271,0.6 -0.239,0 -0.927,0.18 -1.529,0.4 -0.602,0.22 -1.306,0.4 -1.564,0.4 -0.618,0 -0.464,0.481 0.18,0.559 0.509,0.063 2.403,0.574 3.084,0.833 0.436,0.166 1.017,0.344 3.3,1.011 1.836,0.536 2.4,0.794 2.4,1.099 0,0.272 -0.849,0.698 -1.391,0.698 -0.205,0 -1.199,0.27 -2.209,0.6 -1.01,0.33 -2.032,0.6 -2.271,0.6 -0.239,0 -0.927,0.18 -1.529,0.4 -0.602,0.22 -1.253,0.4 -1.447,0.4 -0.67,0 -0.35,0.385 0.497,0.599 0.468,0.118 1.057,0.302 1.309,0.408 0.253,0.106 0.678,0.193 0.945,0.193 0.267,0 0.87,0.176 1.341,0.392 0.47,0.215 1.53,0.584 2.355,0.82 3.087,0.882 3.131,1.319 0.2,1.966 -0.385,0.085 -0.983,0.302 -1.329,0.483 -0.346,0.18 -1.013,0.389 -1.483,0.464 -1.125,0.18 -3.221,0.94 -3.214,1.166 0.006,0.214 2.13,0.902 2.795,0.906 0.258,0.002 0.708,0.171 1,0.377 0.292,0.205 1.206,0.574 2.031,0.82 2.218,0.66 3.302,1.406 2.045,1.406 -0.196,0 -0.534,0.118 -0.75,0.262 -0.217,0.144 -0.8,0.378 -1.295,0.521 -0.495,0.142 -1.139,0.384 -1.431,0.537 -0.292,0.154 -0.671,0.28 -0.843,0.28 -0.643,0 -3.126,0.888 -3.126,1.118 0,0.298 0.459,0.482 1.205,0.482 0.314,0 0.627,0.09 0.695,0.2 0.068,0.11 0.3,0.2 0.516,0.2 0.216,0 0.728,0.212 1.138,0.471 0.41,0.258 1.331,0.628 2.046,0.822 1.899,0.513 3.076,1.303 1.95,1.308 -0.137,0.001 -0.475,0.116 -0.75,0.257 -0.275,0.14 -0.905,0.373 -1.4,0.518 -0.495,0.145 -1.067,0.351 -1.272,0.459 -0.204,0.107 -0.905,0.366 -1.558,0.574 -1.264,0.404 -2.106,0.885 -1.835,1.049 0.091,0.054 0.795,0.292 1.565,0.528 0.77,0.237 1.727,0.646 2.127,0.91 0.4,0.264 1.231,0.626 1.847,0.805 1.609,0.468 1.638,0.814 0.126,1.505 -0.275,0.126 -1.098,0.536 -1.829,0.911 -0.73,0.376 -1.553,0.683 -1.827,0.683 -0.275,0 -0.703,0.165 -0.951,0.366 l -0.452,0.365 0.703,0.435 c 0.387,0.239 0.814,0.434 0.95,0.434 0.136,0 0.71,0.237 1.277,0.527 1.732,0.887 2.151,1.073 2.421,1.073 0.142,0 0.38,0.146 0.528,0.324 0.289,0.348 -0.581,1.273 -1.199,1.275 -0.355,10e-4 -3.821,2.048 -3.821,2.256 0,0.085 0.653,0.462 1.45,0.837 0.798,0.375 1.81,0.88 2.25,1.122 0.44,0.241 0.935,0.504 1.1,0.583 0.454,0.218 0.497,0.983 0.064,1.12 -0.2,0.063 -0.734,0.288 -1.186,0.499 -1.754,0.82 -5.549,-0.153 -10.178,-2.608 -0.99,-0.525 -3.15,-1.655 -4.8,-2.511 -1.65,-0.855 -3.45,-1.799 -4,-2.096 -0.55,-0.298 -1.81,-0.977 -2.8,-1.509 -0.99,-0.532 -2.819,-1.536 -4.065,-2.23 -1.246,-0.694 -2.298,-1.262 -2.338,-1.262 -0.117,0 -6.24,-3.551 -8.197,-4.754 -2.625,-1.613 -4.716,-3.023 -5.4,-3.642 -2.531,-2.287 -10.558,-7.329 -21.8,-13.694 -13.232,-7.492 -16.768,-9.64 -25.637,-15.573 C 103.952,205.113 98.32,200.795 89.702,193.512 76.343,182.224 73.308,177.819 71.595,167.234 71.141,164.43 71.44,150.343 71.998,148.2 c 0.979,-3.755 0.95,-10.062 -0.063,-13.8 -0.872,-3.218 -4.379,-13.615 -5.277,-15.643 -0.792,-1.787 -0.49,-2.13 1.003,-1.141 1.651,1.093 2.669,1.169 15.739,1.176 12.103,0.007 14.686,-0.128 22.6,-1.18 0.825,-0.11 2.175,-0.288 3,-0.396 3.426,-0.45 9.343,-1.423 15.85,-2.607 0.578,-0.105 2.67,-0.469 4.65,-0.809 1.98,-0.34 4.072,-0.704 4.65,-0.809 1.843,-0.335 3.104,-0.56 4.95,-0.883 12.291,-2.147 19.249,-4.616 26.854,-9.533 15.82,-10.226 20.51,-12.79 25.152,-13.75 2.732,-0.565 2.75,-0.567 4.894,-0.596 l 1.9,-0.026 1.988,1.262 m 8.258,-0.866 c 4.858,0.875 5.773,1.293 14.854,6.79 2.3,1.393 8.556,5.323 10.9,6.848 4.998,3.253 7.61,4.572 12.16,6.141 3.291,1.134 10.408,2.875 15.24,3.727 1.944,0.343 3.3,0.586 4.95,0.886 0.578,0.105 2.625,0.46 4.55,0.789 1.925,0.329 4.535,0.783 5.8,1.009 10.168,1.819 14.356,2.434 24.8,3.645 1.083,0.125 7.146,0.258 14.1,0.309 14.005,0.103 15.13,0.033 16.93,-1.058 1.66,-1.006 2.221,-0.655 1.382,0.864 -0.807,1.462 -4.443,12.228 -5.555,16.451 -0.737,2.797 -0.833,6.893 -0.253,10.8 0.719,4.845 0.764,5.462 0.905,12.5 0.308,15.337 -2.067,20.769 -13.585,31.059 -3.536,3.16 -7.867,6.757 -17.224,14.304 -1.21,0.976 -3.37,2.542 -4.8,3.481 -1.43,0.939 -4.31,2.853 -6.4,4.253 -6.149,4.121 -9.834,6.322 -24.8,14.812 -9.589,5.439 -16.369,9.759 -20.4,12.998 -4.469,3.592 -16.868,10.774 -30.6,17.727 -3.227,1.634 -3.824,1.878 -6.046,2.477 -1.923,0.517 -2.254,0.43 -1.054,-0.279 0.915,-0.541 0.776,-0.724 -1.701,-2.231 -2.385,-1.451 -2.664,-1.766 -1.768,-1.991 0.292,-0.073 0.932,-0.41 1.423,-0.747 0.492,-0.338 1.349,-0.781 1.905,-0.985 0.557,-0.203 1.086,-0.484 1.176,-0.624 0.196,-0.305 -0.754,-1.152 -1.295,-1.153 -0.197,-0.001 -0.861,-0.322 -1.474,-0.714 -0.613,-0.392 -1.435,-0.82 -1.825,-0.95 -0.968,-0.323 -1.008,-0.651 -0.115,-0.946 0.411,-0.135 1.153,-0.504 1.65,-0.819 0.496,-0.314 1.042,-0.574 1.213,-0.576 0.171,-0.003 0.536,-0.181 0.811,-0.396 0.275,-0.215 0.603,-0.393 0.729,-0.396 1.046,-0.02 -0.153,-1.29 -1.729,-1.83 -0.385,-0.132 -1.149,-0.541 -1.697,-0.907 -0.549,-0.367 -1.156,-0.667 -1.35,-0.667 -0.615,0 -0.382,-0.36 0.397,-0.612 0.413,-0.134 0.989,-0.411 1.281,-0.616 0.292,-0.204 0.652,-0.372 0.8,-0.371 0.148,0 0.629,-0.175 1.069,-0.388 1.269,-0.615 2.242,-1.013 2.48,-1.013 0.887,0 -0.041,-0.746 -1.38,-1.109 -0.652,-0.177 -1.616,-0.579 -3.1,-1.293 -0.66,-0.318 -1.357,-0.624 -1.55,-0.681 -0.568,-0.169 -0.403,-0.469 0.4,-0.729 0.413,-0.134 0.989,-0.411 1.281,-0.616 0.292,-0.204 0.701,-0.372 0.91,-0.372 0.208,0 0.464,-0.074 0.569,-0.165 0.104,-0.091 0.595,-0.29 1.09,-0.441 2.967,-0.91 3.11,-1.296 0.736,-1.988 -0.79,-0.23 -1.691,-0.551 -2.002,-0.712 -0.312,-0.162 -0.672,-0.294 -0.8,-0.293 -0.129,0 -0.594,-0.175 -1.034,-0.39 -0.44,-0.214 -0.957,-0.437 -1.15,-0.494 -0.192,-0.058 -0.35,-0.2 -0.35,-0.317 0,-0.117 0.158,-0.262 0.35,-0.322 0.566,-0.177 2.306,-0.903 2.881,-1.202 0.292,-0.152 0.787,-0.279 1.1,-0.282 0.313,-0.004 0.744,-0.139 0.957,-0.3 0.214,-0.162 0.598,-0.294 0.853,-0.294 2.236,0 2.585,-1.13 0.459,-1.485 -1.35,-0.226 -3.339,-0.829 -3.86,-1.17 -0.289,-0.19 -0.636,-0.345 -0.77,-0.345 -0.442,0 -2.003,-0.847 -1.835,-0.996 0.091,-0.08 0.615,-0.264 1.165,-0.409 0.55,-0.146 1.18,-0.37 1.4,-0.498 0.22,-0.129 0.76,-0.33 1.2,-0.447 0.44,-0.117 1.303,-0.356 1.918,-0.531 0.614,-0.176 1.347,-0.319 1.627,-0.319 1.381,0 1.746,-1.275 0.42,-1.465 -1.9,-0.272 -4.539,-0.943 -5.312,-1.352 -0.191,-0.1 -0.455,-0.183 -0.587,-0.183 -0.434,0 -2,-0.847 -1.831,-0.99 0.091,-0.077 0.57,-0.26 1.065,-0.407 0.495,-0.146 1.44,-0.445 2.1,-0.664 0.66,-0.219 1.583,-0.475 2.05,-0.569 2.131,-0.427 2.61,-0.534 3.5,-0.785 1.371,-0.387 1.104,-0.995 -0.55,-1.251 -2.485,-0.384 -5.316,-1.087 -6.066,-1.505 -0.256,-0.143 -0.908,-0.391 -1.45,-0.552 -1.014,-0.301 -1.318,-0.677 -0.548,-0.677 0.417,0 1.414,-0.272 2.264,-0.618 0.958,-0.39 2.761,-0.823 5,-1.2 1.433,-0.241 2.3,-0.555 2.3,-0.834 0,-0.315 -0.65,-0.735 -1.147,-0.742 -0.508,-0.007 -1.746,-0.286 -3.684,-0.832 -0.732,-0.206 -1.542,-0.377 -1.8,-0.38 -0.258,-0.004 -0.641,-0.137 -0.85,-0.295 -0.21,-0.159 -0.862,-0.429 -1.45,-0.599 -1.083,-0.315 -1.431,-0.7 -0.633,-0.7 0.418,0 1.422,-0.275 2.264,-0.619 1.033,-0.423 3.922,-1.156 5,-1.269 2.753,-0.287 3.846,-1.477 1.383,-1.505 -0.339,-0.004 -0.683,-0.074 -0.764,-0.157 -0.082,-0.082 -0.794,-0.258 -1.584,-0.389 -2.149,-0.359 -3.828,-0.779 -4.465,-1.118 -0.314,-0.167 -0.952,-0.406 -1.42,-0.531 -0.878,-0.236 -1.155,-0.612 -0.449,-0.612 0.22,0 1.233,-0.258 2.25,-0.574 2.384,-0.741 3.354,-0.985 4.949,-1.246 2.932,-0.481 4.075,-1.406 1.905,-1.543 -0.547,-0.034 -1.087,-0.136 -1.2,-0.225 -0.113,-0.09 -0.745,-0.226 -1.405,-0.304 -1.275,-0.15 -3.192,-0.672 -4.8,-1.306 -0.22,-0.087 -0.782,-0.261 -1.25,-0.388 -0.907,-0.246 -1.145,-0.612 -0.4,-0.617 0.247,-0.001 1.215,-0.27 2.15,-0.597 0.935,-0.327 1.891,-0.596 2.125,-0.597 0.234,-0.002 0.815,-0.141 1.292,-0.309 0.478,-0.169 1.527,-0.362 2.332,-0.43 0.806,-0.068 1.512,-0.2 1.569,-0.294 0.058,-0.093 0.325,-0.17 0.594,-0.17 0.517,0 0.673,-0.462 0.245,-0.726 -0.263,-0.163 -1.389,-0.395 -3.215,-0.663 -0.637,-0.093 -1.402,-0.262 -1.7,-0.376 -0.298,-0.113 -0.967,-0.263 -1.487,-0.332 -0.52,-0.069 -0.998,-0.211 -1.062,-0.315 -0.064,-0.103 -0.293,-0.188 -0.508,-0.188 -0.215,0 -0.547,-0.082 -0.738,-0.181 -0.191,-0.1 -0.729,-0.284 -1.197,-0.408 -0.907,-0.242 -1.146,-0.609 -0.4,-0.614 0.247,-0.001 1.215,-0.27 2.15,-0.597 0.935,-0.327 1.891,-0.596 2.125,-0.597 0.234,-0.002 0.815,-0.141 1.292,-0.309 0.478,-0.169 1.527,-0.362 2.332,-0.43 0.806,-0.068 1.512,-0.2 1.569,-0.294 0.058,-0.093 0.325,-0.17 0.594,-0.17 1.12,0 0.618,-0.951 -0.562,-1.063 -0.577,-0.055 -1.77,-0.246 -2.65,-0.424 -0.88,-0.178 -2.095,-0.416 -2.7,-0.529 -0.605,-0.113 -1.185,-0.29 -1.29,-0.394 -0.104,-0.105 -0.353,-0.19 -0.553,-0.19 -0.199,0 -0.519,-0.081 -0.71,-0.181 -0.191,-0.099 -0.729,-0.293 -1.197,-0.432 -0.917,-0.271 -1.128,-0.584 -0.4,-0.592 0.485,-0.006 3.058,-0.836 3.281,-1.059 0.075,-0.075 0.424,-0.136 0.777,-0.136 0.353,0 0.991,-0.122 1.417,-0.271 0.426,-0.149 1.45,-0.337 2.275,-0.417 0.825,-0.08 1.59,-0.221 1.701,-0.313 0.11,-0.091 0.515,-0.196 0.9,-0.233 1.248,-0.118 0.963,-0.833 -0.401,-1.005 -0.605,-0.076 -1.46,-0.231 -1.9,-0.345 -0.44,-0.113 -1.115,-0.211 -1.5,-0.216 -0.385,-0.006 -1.372,-0.233 -2.193,-0.505 -0.821,-0.272 -1.7,-0.495 -1.953,-0.495 -0.253,0 -0.616,-0.081 -0.807,-0.181 -0.191,-0.099 -0.729,-0.293 -1.197,-0.432 -1.12,-0.331 -1.027,-0.787 0.159,-0.787 0.43,0 2.118,-0.516 2.638,-0.806 0.191,-0.107 0.607,-0.194 0.925,-0.194 0.318,0 0.929,-0.124 1.358,-0.275 0.429,-0.152 1.515,-0.34 2.414,-0.42 2.059,-0.182 3.156,-0.541 3.156,-1.033 0,-0.42 -0.512,-0.557 -3.6,-0.958 -1.1,-0.143 -2.574,-0.452 -3.276,-0.687 -0.702,-0.235 -1.519,-0.427 -1.817,-0.427 -0.297,0 -0.607,-0.067 -0.689,-0.149 -0.082,-0.081 -0.517,-0.239 -0.968,-0.35 -0.987,-0.242 -1.175,-0.605 -0.409,-0.784 1.177,-0.275 2.767,-0.787 2.949,-0.948 0.104,-0.093 0.476,-0.169 0.825,-0.169 0.349,0 0.984,-0.123 1.41,-0.273 0.426,-0.15 1.472,-0.337 2.324,-0.417 0.851,-0.079 1.599,-0.226 1.661,-0.327 0.063,-0.101 0.322,-0.183 0.577,-0.183 0.625,0 1.104,-0.557 0.7,-0.812 -0.158,-0.1 -0.485,-0.183 -0.727,-0.185 -0.242,-0.002 -0.959,-0.138 -1.592,-0.303 -0.634,-0.165 -1.455,-0.3 -1.825,-0.3 -0.37,0 -1.343,-0.225 -2.162,-0.5 -0.819,-0.275 -1.752,-0.5 -2.073,-0.5 -0.322,0 -0.64,-0.09 -0.708,-0.2 -0.068,-0.11 -0.332,-0.2 -0.587,-0.2 -1.179,0 -1.108,-0.898 0.087,-1.1 0.439,-0.074 0.849,-0.217 0.911,-0.317 0.062,-0.101 0.327,-0.183 0.589,-0.183 0.262,0 0.532,-0.09 0.6,-0.2 0.068,-0.11 0.411,-0.201 0.762,-0.203 0.351,-0.002 1.027,-0.138 1.502,-0.304 0.475,-0.165 1.535,-0.357 2.356,-0.427 0.821,-0.069 1.541,-0.202 1.598,-0.296 0.058,-0.093 0.325,-0.17 0.594,-0.17 0.387,0 0.488,-0.103 0.488,-0.5 0,-0.397 -0.101,-0.5 -0.49,-0.5 -0.27,0 -1.009,-0.135 -1.642,-0.3 -0.634,-0.165 -1.465,-0.3 -1.847,-0.3 -0.382,0 -1.199,-0.179 -1.816,-0.398 -1.001,-0.356 -1.905,-0.588 -3.649,-0.937 -1.224,-0.245 -1.198,-0.955 0.044,-1.165 0.439,-0.074 0.849,-0.217 0.911,-0.317 0.062,-0.101 0.327,-0.183 0.589,-0.183 0.262,0 0.532,-0.09 0.6,-0.2 0.068,-0.11 0.375,-0.2 0.682,-0.2 0.307,0 0.819,-0.091 1.138,-0.202 0.675,-0.235 3.398,-0.785 4.63,-0.935 1.228,-0.149 1.293,-1.063 0.075,-1.063 -0.426,0 -1.157,-0.135 -1.625,-0.3 -0.468,-0.165 -1.161,-0.3 -1.54,-0.3 -0.379,0 -1.36,-0.225 -2.179,-0.5 -0.819,-0.275 -1.645,-0.5 -1.835,-0.501 -0.661,-0.001 -2.346,-0.719 -2.346,-0.999 0,-0.163 0.351,-0.369 0.836,-0.49 0.46,-0.116 0.902,-0.278 0.983,-0.36 0.081,-0.082 0.352,-0.15 0.603,-0.15 0.25,0 0.51,-0.09 0.578,-0.2 0.068,-0.11 0.411,-0.203 0.762,-0.207 0.351,-0.004 0.863,-0.136 1.138,-0.293 0.275,-0.157 0.827,-0.289 1.227,-0.293 0.4,-0.004 1.165,-0.137 1.7,-0.297 0.535,-0.159 1.226,-0.342 1.536,-0.407 0.391,-0.081 0.544,-0.221 0.498,-0.457 -0.067,-0.351 -0.305,-0.421 -2.861,-0.844 -0.77,-0.127 -1.556,-0.315 -1.747,-0.417 -0.191,-0.102 -0.641,-0.188 -1,-0.191 -0.359,-0.004 -0.828,-0.139 -1.041,-0.3 -0.214,-0.162 -0.574,-0.294 -0.8,-0.295 -0.686,-10e-4 -2.412,-0.7 -2.412,-0.977 0,-0.143 0.578,-0.437 1.3,-0.661 0.715,-0.221 1.48,-0.472 1.7,-0.557 1.018,-0.393 2.699,-0.805 3.318,-0.813 0.375,-0.005 1.042,-0.138 1.482,-0.297 0.44,-0.158 1.032,-0.289 1.317,-0.291 2.111,-0.012 0.009,-1.208 -2.68,-1.524 -0.632,-0.075 -1.196,-0.213 -1.254,-0.307 -0.059,-0.095 -0.33,-0.172 -0.604,-0.172 -0.457,0 -3.169,-0.774 -4.229,-1.208 -0.517,-0.211 -0.61,-0.792 -0.127,-0.792 0.287,0 1.666,-0.402 2.777,-0.809 0.22,-0.081 0.963,-0.292 1.65,-0.469 0.688,-0.177 1.768,-0.456 2.4,-0.619 0.632,-0.164 1.368,-0.321 1.634,-0.35 1.894,-0.206 0.126,-1.006 -4.284,-1.938 -0.85,-0.18 -3.298,-0.92 -4.05,-1.224 -0.517,-0.209 -0.61,-0.791 -0.127,-0.791 0.288,0 1.676,-0.405 2.777,-0.81 0.881,-0.324 3.458,-1.044 4.4,-1.229 2.386,-0.469 1.945,-1.134 -1.1,-1.658 -1.303,-0.224 -4.591,-1.171 -5.95,-1.715 -0.516,-0.206 -0.61,-0.788 -0.127,-0.788 0.351,0 2.164,-0.551 2.724,-0.828 0.191,-0.095 0.523,-0.172 0.738,-0.172 0.215,0 0.44,-0.079 0.5,-0.176 0.118,-0.19 1.923,-0.823 2.353,-0.825 2.591,-0.011 2.122,-1.215 -0.638,-1.633 -0.715,-0.109 -1.531,-0.321 -1.814,-0.472 -0.576,-0.307 -1.856,-0.751 -3.136,-1.086 -1.411,-0.371 -0.958,-0.901 1.45,-1.701 0.883,-0.293 4.382,-1.414 5.05,-1.618 0.796,-0.243 -0.572,-1.173 -2.033,-1.383 -0.541,-0.077 -1.171,-0.262 -1.4,-0.411 -0.442,-0.286 -1.662,-0.719 -3.067,-1.087 -1.428,-0.375 -0.911,-1.033 1.25,-1.591 0.44,-0.114 0.991,-0.342 1.225,-0.506 0.441,-0.31 1.567,-0.721 3.017,-1.101 1.355,-0.356 0.466,-1.174 -1.642,-1.511 -0.44,-0.071 -1.098,-0.302 -1.461,-0.514 -0.364,-0.212 -0.784,-0.385 -0.934,-0.385 -0.15,0 -0.527,-0.137 -0.839,-0.304 -0.311,-0.167 -0.836,-0.399 -1.166,-0.516 l -0.6,-0.211 0.469,-0.382 c 0.258,-0.21 0.843,-0.482 1.3,-0.604 0.457,-0.123 1.056,-0.354 1.331,-0.513 0.275,-0.16 1.22,-0.536 2.1,-0.836 2.115,-0.72 2.086,-0.972 -0.2,-1.734 -0.99,-0.33 -2.211,-0.842 -2.714,-1.137 -0.502,-0.295 -1.155,-0.598 -1.451,-0.672 -0.96,-0.241 -0.242,-1.288 0.884,-1.29 0.175,-10e-4 0.876,-0.361 1.557,-0.801 0.681,-0.44 1.392,-0.803 1.581,-0.806 1.034,-0.02 1.139,-1.194 0.106,-1.194 -0.169,0 -1.04,-0.443 -1.936,-0.984 -0.896,-0.541 -1.877,-1.046 -2.18,-1.122 -0.948,-0.238 -0.274,-1.29 0.828,-1.293 0.34,-10e-4 3.625,-1.998 3.625,-2.204 0,-0.233 -0.453,-0.531 -1.009,-0.663 -0.459,-0.109 -2.811,-1.51 -3.281,-1.955 -0.378,-0.357 4.926,-0.196 7.236,0.22 M 106.8,142.493 c 0,1.7 1.735,3.497 3.686,3.818 0.448,0.074 0.904,0.203 1.014,0.288 0.11,0.084 0.515,0.203 0.9,0.263 0.385,0.06 1.105,0.213 1.6,0.34 0.495,0.127 1.665,0.35 2.6,0.497 3.64,0.572 4.512,0.737 4.847,0.916 0.461,0.246 1.498,0.236 1.653,-0.015 0.068,-0.11 0.343,-0.2 0.612,-0.2 0.593,0 0.742,-1.74 0.188,-2.2 -0.165,-0.137 -0.3,-0.386 -0.3,-0.553 0,-0.398 -0.924,-1.269 -2.022,-1.908 -1.058,-0.614 -2.348,-0.906 -6.778,-1.534 -0.825,-0.117 -1.77,-0.305 -2.1,-0.418 -0.33,-0.113 -1.792,-0.26 -3.25,-0.327 l -2.65,-0.122 v 1.155 m 184.134,0.24 c -0.073,0.073 -0.966,0.254 -1.984,0.402 -6.399,0.929 -7.611,1.162 -8.633,1.657 -1.17,0.566 -2.517,1.759 -2.517,2.23 0,0.215 -0.135,0.442 -0.3,0.506 -0.343,0.131 -0.415,1.58 -0.104,2.072 0.234,0.369 3.34,0.401 4.051,0.042 0.249,-0.125 1.128,-0.317 1.953,-0.425 0.825,-0.109 1.905,-0.287 2.4,-0.397 0.495,-0.11 1.62,-0.335 2.5,-0.5 3.07,-0.575 4.919,-1.421 5.591,-2.558 0.182,-0.309 0.417,-0.562 0.52,-0.562 0.104,0 0.189,-0.585 0.189,-1.3 v -1.3 h -1.767 c -0.971,0 -1.826,0.06 -1.899,0.133 m -160.423,2.25 c -0.074,0.119 -0.407,0.217 -0.741,0.217 -0.906,0 -1.876,1.398 -1.14,1.643 0.127,0.043 0.244,0.258 0.261,0.48 0.129,1.758 3.058,3.552 6.56,4.019 0.413,0.055 0.801,0.181 0.862,0.279 0.061,0.099 0.488,0.183 0.949,0.188 0.461,0.005 1.243,0.096 1.738,0.203 0.998,0.216 3.767,0.754 4.7,0.913 0.33,0.056 0.78,0.18 1,0.275 2.564,1.107 5.7,0.537 5.7,-1.037 0,-0.42 -0.09,-0.763 -0.2,-0.763 -0.11,0 -0.2,-0.225 -0.2,-0.5 0,-1.076 -2.371,-2.721 -4.9,-3.4 -0.66,-0.177 -1.476,-0.407 -1.814,-0.511 -0.338,-0.104 -0.985,-0.189 -1.438,-0.189 -0.454,0 -0.88,-0.09 -0.948,-0.2 -0.068,-0.11 -0.501,-0.204 -0.962,-0.209 -0.461,-0.005 -1.243,-0.098 -1.738,-0.206 -0.495,-0.109 -1.8,-0.326 -2.9,-0.482 -2.021,-0.286 -3.445,-0.556 -4.227,-0.803 -0.24,-0.075 -0.487,-0.039 -0.562,0.083 m 138.989,1.354 c -0.33,0.042 -0.78,0.159 -1,0.26 -0.22,0.1 -0.805,0.228 -1.3,0.283 -0.495,0.056 -1.395,0.187 -2,0.291 -0.605,0.104 -1.73,0.292 -2.5,0.416 -0.77,0.125 -1.805,0.31 -2.3,0.412 -0.495,0.102 -1.408,0.243 -2.028,0.313 -2.11,0.24 -6.372,2.118 -6.372,2.808 0,0.131 -0.141,0.291 -0.314,0.358 -0.199,0.076 -0.27,0.257 -0.195,0.493 0.068,0.215 -0.01,0.479 -0.186,0.625 -0.168,0.139 -0.305,0.558 -0.305,0.931 0,1.457 1.801,1.783 5.6,1.014 0.825,-0.167 2.13,-0.41 2.9,-0.54 0.77,-0.13 1.58,-0.313 1.8,-0.405 0.483,-0.204 1.455,-0.388 2.8,-0.531 0.55,-0.058 1.09,-0.176 1.2,-0.261 0.11,-0.085 0.74,-0.218 1.4,-0.294 2.852,-0.333 5.9,-2.335 5.9,-3.877 0,-0.225 0.09,-0.465 0.2,-0.533 1.233,-0.762 -1.155,-2.038 -3.3,-1.763 m -112.45,3.845 c -0.942,0.442 -1.286,2.207 -0.55,2.818 0.165,0.137 0.3,0.347 0.3,0.466 0,0.867 4.019,3.134 5.557,3.134 0.317,0 0.643,0.068 0.724,0.15 0.082,0.083 0.839,0.266 1.684,0.407 2.642,0.443 4.713,0.832 8.235,1.544 0.935,0.189 2.15,0.419 2.7,0.511 0.55,0.092 1.45,0.272 2,0.4 1.395,0.325 4.284,0.459 4.784,0.222 0.229,-0.109 0.574,-0.248 0.766,-0.31 0.478,-0.152 0.522,-2.815 0.05,-2.996 -0.165,-0.064 -0.3,-0.222 -0.3,-0.352 0,-0.848 -4.051,-3.163 -5.553,-3.173 -0.249,-0.002 -0.609,-0.088 -0.8,-0.192 -0.191,-0.103 -1.067,-0.281 -1.947,-0.394 -0.88,-0.114 -2.005,-0.295 -2.5,-0.403 -0.495,-0.108 -1.265,-0.2 -1.71,-0.205 -0.446,-0.005 -0.896,-0.091 -1,-0.191 -0.105,-0.099 -0.64,-0.228 -1.19,-0.285 -1.774,-0.183 -5.549,-0.874 -6.23,-1.139 -1.075,-0.418 -4.138,-0.426 -5.02,-0.012 m 84.676,0.958 c -0.077,0.077 -0.609,0.211 -1.183,0.296 -0.574,0.086 -1.853,0.292 -2.843,0.459 -4.225,0.711 -5.652,0.937 -6.5,1.028 -0.495,0.054 -1.08,0.177 -1.3,0.274 -0.456,0.201 -1.196,0.34 -3.226,0.607 -0.784,0.104 -1.95,0.325 -2.592,0.492 -0.641,0.167 -1.284,0.304 -1.428,0.304 -0.144,0 -0.618,0.225 -1.054,0.5 -0.436,0.275 -0.92,0.5 -1.077,0.5 -0.43,0 -2,1.378 -2.19,1.922 -0.091,0.263 -0.249,0.478 -0.35,0.478 -0.101,0 -0.183,0.61 -0.183,1.356 v 1.357 l 0.875,0.258 c 1.463,0.432 3.96,0.205 9.525,-0.866 0.935,-0.18 1.97,-0.373 2.3,-0.43 0.33,-0.056 0.78,-0.18 1,-0.275 0.469,-0.202 1.24,-0.345 3.3,-0.609 0.825,-0.106 1.725,-0.275 2,-0.377 0.275,-0.102 0.95,-0.243 1.5,-0.314 2.56,-0.331 6.3,-2.271 6.3,-3.269 0,-0.1 0.135,-0.294 0.3,-0.431 0.841,-0.698 0.186,-3 -0.854,-3 -0.232,0 -0.478,-0.09 -0.546,-0.2 -0.14,-0.226 -1.559,-0.274 -1.774,-0.06 M 27.4,153.4 c 0,0.114 -0.6,0.2 -1.4,0.2 -0.8,0 -1.4,0.086 -1.4,0.2 0,0.11 -0.405,0.2 -0.9,0.2 -0.495,0 -0.9,0.09 -0.9,0.2 0,0.11 -0.27,0.2 -0.6,0.2 -0.33,0 -0.6,0.09 -0.6,0.2 0,0.11 -0.27,0.2 -0.6,0.2 -0.33,0 -0.6,0.09 -0.6,0.2 0,0.11 -0.18,0.2 -0.4,0.2 -0.22,0 -0.4,0.09 -0.4,0.2 0,0.11 -0.225,0.2 -0.5,0.2 -0.275,0 -0.5,0.09 -0.5,0.2 0,0.11 -0.18,0.2 -0.4,0.2 -0.22,0 -0.4,0.083 -0.4,0.184 0,0.101 -0.27,0.244 -0.6,0.316 -0.33,0.072 -0.6,0.215 -0.6,0.316 0,0.101 -0.118,0.184 -0.262,0.184 -0.145,0 -0.456,0.18 -0.692,0.4 -0.236,0.22 -0.524,0.4 -0.639,0.4 -0.116,0 -0.493,0.27 -0.838,0.6 -0.346,0.33 -0.709,0.6 -0.807,0.6 -0.244,0 -4.562,4.462 -4.562,4.714 0,0.069 -0.27,0.378 -0.6,0.686 -0.33,0.308 -0.6,0.685 -0.6,0.836 0,0.152 -0.18,0.405 -0.4,0.564 -0.22,0.159 -0.4,0.448 -0.4,0.644 0,0.196 -0.09,0.356 -0.2,0.356 -0.11,0 -0.2,0.118 -0.2,0.262 0,0.145 -0.18,0.456 -0.4,0.692 -0.22,0.236 -0.4,0.568 -0.4,0.738 0,0.169 -0.09,0.308 -0.2,0.308 -0.11,0 -0.2,0.18 -0.2,0.4 0,0.22 -0.09,0.4 -0.2,0.4 -0.11,0 -0.2,0.136 -0.2,0.303 0,0.166 -0.079,0.459 -0.177,0.65 -0.657,1.291 -1.223,3.028 -1.223,3.751 0,0.383 -0.09,0.696 -0.2,0.696 -0.11,0 -0.2,0.36 -0.2,0.8 0,0.44 -0.09,0.8 -0.2,0.8 -0.11,0 -0.2,0.4 -0.2,0.888 0,0.489 -0.09,0.944 -0.2,1.012 -0.133,0.082 -0.2,21.202 -0.2,62.712 0,41.592 0.067,62.588 0.2,62.588 0.11,0 0.2,0.45 0.2,1 0,0.55 0.09,1 0.2,1 0.11,0 0.2,0.36 0.2,0.8 0,0.44 0.077,0.8 0.172,0.8 0.095,0 0.227,0.466 0.295,1.035 0.067,0.569 0.215,1.127 0.328,1.24 0.113,0.113 0.205,0.412 0.205,0.665 0,0.253 0.09,0.46 0.2,0.46 0.11,0 0.2,0.139 0.2,0.31 0,0.17 0.18,0.682 0.4,1.137 0.22,0.456 0.4,0.946 0.4,1.091 0,0.144 0.09,0.262 0.2,0.262 0.11,0 0.2,0.118 0.2,0.262 0,0.145 0.18,0.456 0.4,0.692 0.22,0.236 0.4,0.568 0.4,0.738 0,0.169 0.09,0.308 0.2,0.308 0.11,0 0.2,0.115 0.2,0.256 0,0.141 0.18,0.385 0.4,0.544 0.22,0.159 0.4,0.412 0.4,0.564 0,0.151 0.27,0.528 0.6,0.836 0.33,0.308 0.6,0.656 0.6,0.773 0,0.449 4.105,4.627 4.547,4.627 0.161,0 0.545,0.27 0.853,0.6 0.308,0.33 0.685,0.6 0.836,0.6 0.152,0 0.405,0.18 0.564,0.4 0.159,0.22 0.448,0.4 0.644,0.4 0.196,0 0.356,0.09 0.356,0.2 0,0.11 0.135,0.2 0.3,0.2 0.165,0 0.3,0.09 0.3,0.2 0,0.11 0.18,0.2 0.4,0.2 0.22,0 0.4,0.09 0.4,0.2 0,0.11 0.18,0.2 0.4,0.2 0.22,0 0.4,0.09 0.4,0.2 0,0.11 0.18,0.2 0.4,0.2 0.22,0 0.4,0.09 0.4,0.2 0,0.11 0.175,0.2 0.388,0.2 0.214,0 0.444,0.09 0.512,0.2 0.068,0.11 0.343,0.2 0.612,0.2 0.268,0 0.488,0.09 0.488,0.2 0,0.11 0.36,0.2 0.8,0.2 0.44,0 0.8,0.09 0.8,0.2 0,0.11 0.31,0.2 0.688,0.2 0.379,0 0.744,0.09 0.812,0.2 0.068,0.11 0.788,0.2 1.6,0.2 0.812,0 1.532,0.09 1.6,0.2 0.068,0.11 0.928,0.2 1.912,0.2 1.059,0 1.788,-0.082 1.788,-0.2 0,-0.115 0.629,-0.2 1.488,-0.2 0.819,0 1.538,-0.08 1.599,-0.179 0.061,-0.098 0.449,-0.23 0.862,-0.292 1.79,-0.271 2.251,-0.383 2.251,-0.551 0,-0.098 0.27,-0.178 0.6,-0.178 0.33,0 0.6,-0.09 0.6,-0.2 0,-0.11 0.18,-0.2 0.4,-0.2 0.22,0 0.4,-0.09 0.4,-0.2 0,-0.11 0.225,-0.2 0.5,-0.2 0.275,0 0.5,-0.09 0.5,-0.2 0,-0.11 0.18,-0.2 0.4,-0.2 0.22,0 0.4,-0.09 0.4,-0.2 0,-0.11 0.135,-0.2 0.3,-0.2 0.165,0 0.3,-0.09 0.3,-0.2 0,-0.11 0.18,-0.2 0.4,-0.2 0.22,0 0.4,-0.09 0.4,-0.2 0,-0.11 0.115,-0.2 0.256,-0.2 0.141,0 0.385,-0.18 0.544,-0.4 0.159,-0.22 0.429,-0.4 0.6,-0.4 0.171,0 0.441,-0.18 0.6,-0.4 0.159,-0.22 0.403,-0.4 0.543,-0.4 0.622,0 5.447,-4.869 5.454,-5.506 0.002,-0.113 0.183,-0.335 0.403,-0.494 0.22,-0.159 0.4,-0.429 0.4,-0.6 0,-0.171 0.18,-0.441 0.4,-0.6 0.22,-0.159 0.4,-0.362 0.4,-0.453 0,-0.09 0.18,-0.357 0.4,-0.593 0.22,-0.236 0.4,-0.547 0.4,-0.692 0,-0.144 0.09,-0.262 0.2,-0.262 0.11,0 0.2,-0.18 0.2,-0.4 0,-0.22 0.09,-0.4 0.2,-0.4 0.11,0 0.2,-0.18 0.2,-0.4 0,-0.22 0.09,-0.4 0.2,-0.4 0.11,0 0.2,-0.18 0.2,-0.4 0,-0.22 0.09,-0.4 0.2,-0.4 0.11,0 0.2,-0.27 0.2,-0.6 0,-0.33 0.09,-0.6 0.2,-0.6 0.11,0 0.2,-0.162 0.2,-0.36 0,-0.198 0.074,-0.446 0.165,-0.55 0.091,-0.105 0.28,-0.595 0.421,-1.09 0.141,-0.495 0.34,-1.115 0.443,-1.378 0.103,-0.263 0.242,-1.185 0.309,-2.05 0.067,-0.865 0.198,-1.572 0.292,-1.572 0.093,0 0.17,-0.855 0.17,-1.9 0,-1.133 0.081,-1.9 0.2,-1.9 0.133,0 0.2,-19.733 0.2,-58.8 0,-39.067 -0.067,-58.8 -0.2,-58.8 -0.12,0 -0.2,-0.8 -0.2,-2 0,-1.2 -0.08,-2 -0.2,-2 -0.11,0 -0.2,-0.422 -0.2,-0.937 0,-0.983 -0.483,-3.316 -0.809,-3.91 -0.105,-0.191 -0.191,-0.523 -0.191,-0.738 0,-0.215 -0.09,-0.447 -0.2,-0.515 -0.11,-0.068 -0.2,-0.298 -0.2,-0.512 0,-0.213 -0.09,-0.388 -0.2,-0.388 -0.11,0 -0.2,-0.225 -0.2,-0.5 0,-0.275 -0.09,-0.5 -0.2,-0.5 -0.11,0 -0.2,-0.18 -0.2,-0.4 0,-0.22 -0.09,-0.4 -0.2,-0.4 -0.11,0 -0.2,-0.18 -0.2,-0.4 0,-0.22 -0.09,-0.4 -0.2,-0.4 -0.11,0 -0.2,-0.18 -0.2,-0.4 0,-0.22 -0.09,-0.4 -0.2,-0.4 -0.11,0 -0.2,-0.16 -0.2,-0.356 0,-0.196 -0.18,-0.485 -0.4,-0.644 -0.22,-0.159 -0.4,-0.448 -0.4,-0.644 0,-0.196 -0.075,-0.356 -0.166,-0.356 -0.092,0 -0.294,-0.247 -0.449,-0.55 -0.155,-0.302 -0.44,-0.696 -0.634,-0.873 C 51.158,164.399 51,164.199 51,164.133 c 0,-0.356 -5.115,-5.533 -5.467,-5.533 -0.135,0 -0.374,-0.18 -0.533,-0.4 -0.159,-0.22 -0.386,-0.4 -0.506,-0.4 -0.12,0 -0.393,-0.16 -0.606,-0.355 -0.214,-0.195 -0.928,-0.623 -1.588,-0.95 -0.66,-0.327 -1.23,-0.662 -1.267,-0.745 -0.036,-0.082 -0.329,-0.15 -0.65,-0.15 -0.32,0 -0.583,-0.09 -0.583,-0.2 0,-0.11 -0.18,-0.2 -0.4,-0.2 -0.22,0 -0.4,-0.09 -0.4,-0.2 0,-0.11 -0.27,-0.2 -0.6,-0.2 -0.33,0 -0.6,-0.09 -0.6,-0.2 0,-0.11 -0.27,-0.2 -0.6,-0.2 -0.33,0 -0.6,-0.09 -0.6,-0.2 0,-0.11 -0.405,-0.2 -0.9,-0.2 -0.495,0 -0.9,-0.09 -0.9,-0.2 0,-0.114 -0.6,-0.2 -1.4,-0.2 -0.8,0 -1.4,-0.086 -1.4,-0.2 0,-0.122 -0.9,-0.2 -2.3,-0.2 -1.4,0 -2.3,0.078 -2.3,0.2 m 340.6,0 c 0,0.114 -0.6,0.2 -1.4,0.2 -0.8,0 -1.4,0.086 -1.4,0.2 0,0.11 -0.36,0.2 -0.8,0.2 -0.44,0 -0.8,0.09 -0.8,0.2 0,0.11 -0.315,0.2 -0.7,0.2 -0.385,0 -0.7,0.09 -0.7,0.2 0,0.11 -0.27,0.2 -0.6,0.2 -0.33,0 -0.6,0.09 -0.6,0.2 0,0.11 -0.18,0.2 -0.4,0.2 -0.22,0 -0.4,0.09 -0.4,0.2 0,0.11 -0.18,0.2 -0.4,0.2 -0.22,0 -0.4,0.09 -0.4,0.2 0,0.11 -0.18,0.2 -0.4,0.2 -0.22,0 -0.4,0.09 -0.4,0.2 0,0.11 -0.144,0.2 -0.321,0.2 -0.386,0 -2.279,1.038 -2.279,1.25 0,0.083 -0.122,0.15 -0.27,0.15 -0.149,0 -0.553,0.27 -0.899,0.6 -0.345,0.33 -0.713,0.6 -0.817,0.6 -0.233,0 -3.561,3.321 -4.114,4.105 -0.22,0.312 -0.58,0.753 -0.8,0.981 -0.22,0.228 -0.528,0.662 -0.684,0.964 -0.156,0.303 -0.358,0.55 -0.45,0.55 -0.091,0 -0.166,0.118 -0.166,0.262 0,0.145 -0.18,0.456 -0.4,0.692 -0.22,0.236 -0.4,0.568 -0.4,0.738 0,0.169 -0.09,0.308 -0.2,0.308 -0.11,0 -0.2,0.141 -0.2,0.314 0,0.173 -0.135,0.449 -0.3,0.614 -0.165,0.165 -0.358,0.541 -0.43,0.836 -0.073,0.295 -0.185,0.581 -0.251,0.636 -0.265,0.223 -1.019,1.863 -1.019,2.219 0,0.21 -0.09,0.381 -0.2,0.381 -0.11,0 -0.2,0.265 -0.2,0.588 0,0.324 -0.08,0.638 -0.178,0.698 -0.196,0.122 -0.296,0.589 -0.669,3.148 -0.139,0.954 -0.32,1.801 -0.403,1.883 -0.221,0.22 -0.188,124.016 0.033,124.436 0.101,0.191 0.282,1.112 0.403,2.047 0.307,2.379 0.432,2.987 0.636,3.114 0.098,0.06 0.178,0.329 0.178,0.598 0,0.268 0.09,0.488 0.2,0.488 0.11,0 0.2,0.22 0.2,0.488 0,0.269 0.09,0.544 0.2,0.612 0.11,0.068 0.2,0.298 0.2,0.512 0,0.213 0.09,0.388 0.2,0.388 0.11,0 0.2,0.18 0.2,0.4 0,0.22 0.09,0.4 0.2,0.4 0.11,0 0.2,0.18 0.2,0.4 0,0.22 0.09,0.4 0.2,0.4 0.11,0 0.2,0.18 0.2,0.4 0,0.22 0.09,0.4 0.2,0.4 0.11,0 0.2,0.18 0.2,0.4 0,0.22 0.09,0.4 0.2,0.4 0.11,0 0.2,0.134 0.2,0.298 0,0.302 0.338,0.777 1.15,1.618 0.248,0.256 0.45,0.569 0.45,0.695 0,0.126 0.27,0.481 0.6,0.789 0.33,0.308 0.6,0.659 0.6,0.779 0,0.471 2.809,3.378 3.799,3.931 0.384,0.214 0.937,0.638 1.23,0.94 0.292,0.303 0.642,0.55 0.778,0.55 0.135,0 0.392,0.164 0.57,0.365 0.177,0.201 0.616,0.493 0.973,0.649 0.357,0.156 0.65,0.352 0.65,0.435 0,0.083 0.18,0.151 0.4,0.151 0.22,0 0.4,0.09 0.4,0.2 0,0.11 0.18,0.2 0.4,0.2 0.22,0 0.4,0.09 0.4,0.2 0,0.11 0.18,0.2 0.4,0.2 0.22,0 0.4,0.09 0.4,0.2 0,0.11 0.181,0.2 0.403,0.2 0.221,0 0.581,0.09 0.8,0.2 0.218,0.11 0.576,0.29 0.794,0.4 0.219,0.11 0.618,0.2 0.888,0.2 0.27,0 0.547,0.09 0.615,0.2 0.068,0.11 0.428,0.2 0.8,0.2 0.372,0 0.732,0.09 0.8,0.2 0.068,0.11 0.775,0.2 1.572,0.2 0.796,0 1.545,0.097 1.663,0.215 0.31,0.31 6.39,-0.078 6.755,-0.431 0.105,-0.101 0.527,-0.184 0.938,-0.184 0.412,0 0.804,-0.09 0.872,-0.2 0.068,-0.11 0.388,-0.2 0.712,-0.2 0.323,0 0.588,-0.09 0.588,-0.2 0,-0.11 0.27,-0.2 0.6,-0.2 0.33,0 0.6,-0.09 0.6,-0.2 0,-0.11 0.18,-0.2 0.4,-0.2 0.22,0 0.4,-0.09 0.4,-0.2 0,-0.11 0.171,-0.2 0.381,-0.2 0.479,0 2.013,-0.785 2.442,-1.25 0.178,-0.192 0.471,-0.35 0.65,-0.35 0.18,0 0.327,-0.09 0.327,-0.2 0,-0.11 0.144,-0.2 0.32,-0.2 0.176,0 0.572,-0.27 0.88,-0.6 0.308,-0.33 0.659,-0.6 0.779,-0.6 0.536,0 5.821,-5.316 5.821,-5.855 0,-0.109 0.158,-0.344 0.351,-0.522 0.194,-0.177 0.479,-0.57 0.634,-0.873 0.155,-0.302 0.357,-0.55 0.449,-0.55 0.091,0 0.166,-0.135 0.166,-0.3 0,-0.165 0.09,-0.3 0.2,-0.3 0.11,0 0.2,-0.18 0.2,-0.4 0,-0.22 0.09,-0.4 0.2,-0.4 0.11,0 0.2,-0.18 0.2,-0.4 0,-0.22 0.09,-0.4 0.2,-0.4 0.11,0 0.2,-0.18 0.2,-0.4 0,-0.22 0.09,-0.4 0.2,-0.4 0.11,0 0.2,-0.18 0.2,-0.4 0,-0.22 0.09,-0.4 0.2,-0.4 0.11,0 0.2,-0.175 0.2,-0.388 0,-0.214 0.09,-0.444 0.2,-0.512 0.11,-0.068 0.2,-0.343 0.2,-0.612 0,-0.268 0.084,-0.488 0.186,-0.488 0.102,0 0.247,-0.495 0.323,-1.1 0.075,-0.605 0.217,-1.1 0.314,-1.1 0.097,0 0.177,-0.36 0.177,-0.8 0,-0.44 0.09,-0.8 0.2,-0.8 0.11,0 0.2,-0.45 0.2,-1 0,-0.55 0.09,-1 0.2,-1 0.116,0 0.2,-0.633 0.2,-1.5 0,-0.867 0.084,-1.5 0.2,-1.5 0.133,0 0.2,-20.133 0.2,-60 0,-39.867 -0.067,-60 -0.2,-60 -0.117,0 -0.2,-0.667 -0.2,-1.6 0,-0.933 -0.083,-1.6 -0.2,-1.6 -0.11,0 -0.2,-0.405 -0.2,-0.9 0,-0.495 -0.09,-0.9 -0.2,-0.9 -0.11,0 -0.2,-0.36 -0.2,-0.8 0,-0.44 -0.077,-0.8 -0.172,-0.8 -0.095,0 -0.227,-0.466 -0.295,-1.035 -0.067,-0.569 -0.215,-1.127 -0.328,-1.24 -0.113,-0.113 -0.205,-0.358 -0.205,-0.546 0,-0.378 -0.814,-2.041 -1.05,-2.146 -0.082,-0.036 -0.15,-0.239 -0.15,-0.45 0,-0.211 -0.09,-0.383 -0.2,-0.383 -0.11,0 -0.2,-0.18 -0.2,-0.4 0,-0.22 -0.09,-0.4 -0.2,-0.4 -0.11,0 -0.2,-0.18 -0.2,-0.4 0,-0.22 -0.09,-0.4 -0.2,-0.4 -0.11,0 -0.2,-0.16 -0.2,-0.356 0,-0.196 -0.18,-0.485 -0.4,-0.644 -0.22,-0.159 -0.4,-0.402 -0.4,-0.541 0,-0.275 -0.627,-1.045 -1.95,-2.397 -0.468,-0.477 -0.85,-0.95 -0.85,-1.051 0,-0.101 -0.408,-0.572 -0.907,-1.047 -0.499,-0.475 -1.307,-1.246 -1.795,-1.714 -0.488,-0.467 -0.957,-0.85 -1.043,-0.85 -0.085,-0.001 -0.47,-0.271 -0.855,-0.6 -0.385,-0.329 -0.812,-0.599 -0.95,-0.6 -0.137,0 -0.25,-0.07 -0.25,-0.155 0,-0.086 -0.404,-0.333 -0.898,-0.55 -0.494,-0.217 -0.899,-0.462 -0.9,-0.545 C 382.401,156.067 382.22,156 382,156 c -0.22,0 -0.4,-0.09 -0.4,-0.2 0,-0.11 -0.175,-0.2 -0.388,-0.2 -0.214,0 -0.444,-0.09 -0.512,-0.2 -0.068,-0.11 -0.343,-0.2 -0.612,-0.2 -0.268,0 -0.488,-0.09 -0.488,-0.2 0,-0.11 -0.27,-0.2 -0.6,-0.2 -0.33,0 -0.6,-0.09 -0.6,-0.2 0,-0.11 -0.27,-0.2 -0.6,-0.2 -0.33,0 -0.6,-0.09 -0.6,-0.2 0,-0.11 -0.36,-0.2 -0.8,-0.2 -0.44,0 -0.8,-0.09 -0.8,-0.2 0,-0.116 -0.633,-0.2 -1.5,-0.2 -0.867,0 -1.5,-0.084 -1.5,-0.2 0,-0.122 -0.9,-0.2 -2.3,-0.2 -1.4,0 -2.3,0.078 -2.3,0.2 m -260.95,2.925 c -0.159,0.069 -0.247,0.519 -0.241,1.242 0.015,2.078 1.814,3.51 5.329,4.241 1.327,0.276 3.959,0.782 5.162,0.993 1.32,0.231 3.858,0.739 4.556,0.911 0.305,0.075 0.958,0.024 1.45,-0.114 l 0.894,-0.25 v -0.962 c 0,-0.529 -0.088,-1.017 -0.195,-1.083 -0.107,-0.066 -0.345,-0.437 -0.528,-0.824 -0.517,-1.089 -2.91,-2.479 -4.267,-2.479 -0.291,0 -0.616,-0.082 -0.72,-0.182 -0.104,-0.099 -0.64,-0.228 -1.19,-0.285 -1.041,-0.108 -4.003,-0.587 -5.9,-0.954 -1.299,-0.251 -3.993,-0.408 -4.35,-0.254 m 183.855,1.467 c -0.071,0.115 -0.506,0.212 -0.967,0.217 -0.461,0.005 -1.243,0.098 -1.738,0.206 -0.495,0.109 -1.845,0.334 -3,0.5 -1.155,0.166 -2.438,0.353 -2.851,0.415 -0.413,0.062 -0.801,0.193 -0.862,0.291 -0.061,0.099 -0.287,0.179 -0.503,0.179 -0.799,0 -3.184,1.807 -3.184,2.413 0,0.186 -0.139,0.454 -0.31,0.595 -0.59,0.49 -0.308,2.031 0.41,2.237 0.675,0.194 3.208,0.018 3.725,-0.258 0.185,-0.099 0.998,-0.239 1.806,-0.311 0.808,-0.072 1.559,-0.196 1.669,-0.276 0.11,-0.08 0.56,-0.202 1,-0.271 6.206,-0.967 8.592,-2.339 8.46,-4.867 l -0.06,-1.162 -1.734,-0.058 c -1.044,-0.034 -1.784,0.025 -1.861,0.15 m -161.085,2.355 c -1.072,0.131 -1.909,1.478 -1.109,1.785 0.178,0.068 0.287,0.304 0.254,0.553 -0.033,0.255 0.168,0.676 0.489,1.022 0.3,0.324 0.546,0.647 0.546,0.718 0,0.214 2.403,1.575 2.781,1.575 0.194,0 0.419,0.068 0.501,0.15 0.162,0.162 2.07,0.519 4.618,0.864 0.88,0.119 1.78,0.293 2,0.387 0.22,0.095 0.67,0.218 1,0.275 0.578,0.1 2.825,0.538 4.7,0.918 1.601,0.324 3.841,0.242 4.363,-0.159 0.536,-0.412 0.707,-1.328 0.309,-1.658 -0.149,-0.124 -0.275,-0.417 -0.279,-0.651 -0.03,-1.784 -3.589,-3.474 -8.893,-4.223 -1.1,-0.156 -2.45,-0.382 -3,-0.503 -0.55,-0.121 -1.9,-0.348 -3,-0.503 -1.1,-0.156 -2.405,-0.373 -2.9,-0.482 -0.924,-0.203 -1.207,-0.211 -2.38,-0.068 m 139.98,1.227 c -0.165,0.098 -0.84,0.237 -1.5,0.309 -0.66,0.073 -1.605,0.216 -2.1,0.318 -0.495,0.102 -1.53,0.287 -2.3,0.412 -0.77,0.124 -1.85,0.304 -2.4,0.399 -0.55,0.095 -1.675,0.269 -2.5,0.386 -3.656,0.52 -7.921,2.734 -7.479,3.884 0.053,0.14 -0.042,0.369 -0.212,0.51 -0.546,0.454 -0.39,1.523 0.293,2.01 0.798,0.568 4.941,0.295 6.798,-0.448 0.165,-0.066 0.615,-0.173 1,-0.237 0.385,-0.065 1.375,-0.254 2.2,-0.42 0.825,-0.167 2.22,-0.401 3.1,-0.52 0.88,-0.12 1.752,-0.298 1.937,-0.397 0.185,-0.099 0.545,-0.181 0.8,-0.183 1.857,-0.012 5.163,-2.43 5.163,-3.777 0,-0.218 0.09,-0.452 0.2,-0.52 0.583,-0.36 -0.135,-1.38 -1.1,-1.562 -0.33,-0.063 -0.825,-0.165 -1.1,-0.227 -0.275,-0.063 -0.635,-0.034 -0.8,0.063 m -112.185,3.563 c -1.328,0.273 -2.058,2.28 -1.115,3.063 0.165,0.137 0.3,0.358 0.3,0.492 0,0.292 1.961,2.108 2.278,2.109 0.122,0 0.762,0.223 1.422,0.495 0.66,0.272 1.487,0.497 1.838,0.499 0.351,0.003 0.688,0.085 0.749,0.184 0.061,0.098 0.449,0.229 0.862,0.291 1.249,0.187 4.049,0.678 5.851,1.027 0.935,0.181 2.015,0.379 2.4,0.44 0.385,0.061 0.79,0.178 0.9,0.261 0.11,0.082 0.76,0.211 1.445,0.285 0.684,0.075 1.854,0.265 2.6,0.423 1.386,0.294 4.956,0.364 5.855,0.116 1.554,-0.43 -0.209,-5.222 -1.921,-5.222 -0.158,0 -0.623,-0.207 -1.033,-0.461 -0.881,-0.545 -1.934,-0.867 -3.446,-1.055 -0.605,-0.076 -1.19,-0.206 -1.3,-0.29 -0.11,-0.084 -0.65,-0.202 -1.2,-0.262 -0.55,-0.059 -1.81,-0.249 -2.8,-0.42 -0.99,-0.172 -2.52,-0.406 -3.4,-0.521 -0.88,-0.114 -1.78,-0.289 -2,-0.389 -0.22,-0.1 -0.805,-0.227 -1.3,-0.282 -1.507,-0.17 -2.49,-0.359 -2.7,-0.522 -0.248,-0.191 -3.624,-0.397 -4.285,-0.261 m 82.885,1.453 c -0.55,0.086 -1.485,0.258 -2.077,0.383 -0.593,0.125 -1.42,0.227 -1.838,0.227 -0.419,0 -0.811,0.08 -0.872,0.179 -0.061,0.098 -0.449,0.229 -0.862,0.29 -3.764,0.56 -8.215,1.288 -9.251,1.514 -0.495,0.107 -1.387,0.297 -1.981,0.421 -0.595,0.124 -1.575,0.489 -2.179,0.811 -0.603,0.322 -1.196,0.585 -1.319,0.585 -0.122,0 -0.477,0.27 -0.789,0.6 -0.311,0.33 -0.648,0.6 -0.749,0.6 -0.101,0 -0.183,0.169 -0.183,0.376 0,0.206 -0.135,0.487 -0.3,0.624 -0.208,0.172 -0.3,0.631 -0.3,1.493 v 1.244 l 0.773,0.231 c 0.933,0.28 3.782,0.29 5.027,0.018 0.495,-0.108 1.395,-0.28 2,-0.382 0.605,-0.102 1.505,-0.277 2,-0.388 0.495,-0.112 1.62,-0.339 2.5,-0.505 0.88,-0.166 1.96,-0.391 2.4,-0.501 0.44,-0.11 1.177,-0.203 1.638,-0.205 0.461,-0.003 0.894,-0.095 0.962,-0.205 0.068,-0.11 0.473,-0.2 0.9,-0.2 0.427,0 0.825,-0.078 0.884,-0.174 0.059,-0.095 0.672,-0.237 1.362,-0.314 0.689,-0.078 1.794,-0.352 2.454,-0.609 0.66,-0.257 1.389,-0.522 1.619,-0.589 0.506,-0.146 2.281,-1.741 2.281,-2.048 0,-0.119 0.135,-0.329 0.3,-0.466 0.544,-0.452 0.402,-2.324 -0.206,-2.723 -0.585,-0.382 -2.671,-0.526 -4.194,-0.287 m -135.419,3.896 c -0.39,0.273 -0.424,0.526 -0.292,2.148 0.034,0.414 2.664,1.557 3.597,1.563 1.664,0.01 3.126,-1.314 2.329,-2.11 -0.156,-0.157 -0.459,-0.506 -0.672,-0.777 -0.767,-0.976 -3.984,-1.51 -4.962,-0.824 m 187.562,1.256 c -0.524,0.101 -2.243,1.81 -2.243,2.232 0,2.351 6.212,1.499 6.363,-0.873 0.09,-1.419 -1.342,-1.891 -4.12,-1.359 m -176.095,0.539 c -3.608,1.31 0.993,4.966 4.702,3.737 1.077,-0.357 1.117,-1.754 0.078,-2.704 -1.066,-0.975 -3.494,-1.499 -4.78,-1.033 M 283,173.145 c -0.385,0.046 -0.786,0.167 -0.89,0.269 -0.105,0.102 -0.381,0.186 -0.614,0.186 -1.481,0 -2.841,2.787 -1.666,3.416 0.728,0.39 3.137,0.284 4.383,-0.192 3.179,-1.214 2.23,-4.092 -1.213,-3.679 m -155.05,1.191 c -1.287,0.834 -0.558,2.715 1.325,3.423 2.542,0.955 2.785,0.986 4.125,0.527 3.081,-1.053 0.88,-3.986 -3.159,-4.209 -1.442,-0.08 -1.836,-0.035 -2.291,0.259 M 270.4,175.4 c -0.165,0.107 -0.556,0.195 -0.869,0.197 -1.667,0.009 -3.627,2.805 -2.481,3.54 2.329,1.492 7.155,-0.073 7.148,-2.318 -0.005,-1.254 -2.569,-2.213 -3.798,-1.419 m -165.305,1.079 c -1.097,0.802 -0.151,2.649 1.702,3.322 2.81,1.021 5.208,-0.351 3.604,-2.062 -0.33,-0.351 -0.6,-0.706 -0.6,-0.789 -0.001,-0.082 -0.204,-0.153 -0.451,-0.156 -0.247,-0.004 -0.625,-0.139 -0.838,-0.3 -0.513,-0.388 -2.893,-0.399 -3.417,-0.015 m 37.505,-0.088 c -0.165,0.111 -0.586,0.204 -0.936,0.206 -1.912,0.009 -1.795,1.961 0.196,3.262 3.349,2.189 8.367,1.077 6.677,-1.479 -0.774,-1.17 -5.037,-2.599 -5.937,-1.989 m 114.2,1.341 c -2.522,0.495 -4.2,1.667 -4.2,2.935 0,2.427 5.125,2.281 8.05,-0.229 0.542,-0.465 0.478,-1.946 -0.1,-2.319 -0.472,-0.305 -2.894,-0.555 -3.75,-0.387 m 35.912,0.174 c -0.214,0.162 -0.529,0.296 -0.7,0.298 -0.361,0.004 -1.612,1.436 -1.612,1.845 0,2.342 6.213,1.417 6.363,-0.948 0.048,-0.761 -0.018,-1.047 -0.288,-1.244 -0.502,-0.367 -3.261,-0.33 -3.763,0.049 m -177.162,1.188 c -0.67,0.922 -0.37,1.706 1.032,2.697 0.636,0.449 1.424,0.677 3.261,0.942 1.744,0.252 2.861,-1.573 1.766,-2.886 -1.069,-1.281 -5.293,-1.806 -6.059,-0.753 m 41.95,-0.053 c -2.483,0.586 -3.032,1.753 -1.497,3.185 0.457,0.426 0.97,0.774 1.14,0.774 0.17,0 0.609,0.185 0.974,0.411 1.035,0.639 4.475,0.788 5.699,0.247 2.291,-1.014 -0.119,-3.996 -3.592,-4.447 -0.728,-0.095 -1.459,-0.214 -1.624,-0.266 -0.165,-0.051 -0.66,-0.008 -1.1,0.096 m 124.416,0.933 c -0.059,0.096 -0.383,0.229 -0.72,0.297 -1.629,0.326 -2.388,2.481 -1.176,3.343 2.349,1.673 7.717,-1.5 5.717,-3.379 -0.486,-0.457 -3.57,-0.668 -3.821,-0.261 m -39.516,0.417 c -0.165,0.112 -0.705,0.205 -1.2,0.208 -3.03,0.017 -5.868,3.393 -3.65,4.342 1.505,0.644 4.176,0.525 5.716,-0.254 0.312,-0.158 0.717,-0.29 0.9,-0.293 0.399,-0.008 1.034,-0.459 1.034,-0.734 0,-0.108 0.225,-0.298 0.5,-0.424 1.266,-0.576 0.511,-2.427 -1.101,-2.699 -0.384,-0.065 -0.969,-0.17 -1.299,-0.233 -0.33,-0.064 -0.735,-0.024 -0.9,0.087 m -114.35,0.745 c -1.249,0.647 -0.777,2.548 0.85,3.426 2.668,1.439 5.708,1.022 5.861,-0.805 0.064,-0.758 -0.566,-1.322 -2.724,-2.438 -0.945,-0.489 -3.197,-0.592 -3.987,-0.183 m 45.087,1.267 c -2.496,0.75 -0.734,3.595 2.796,4.514 1.508,0.393 5.301,0.379 6.077,-0.022 0.534,-0.276 0.59,-0.4 0.59,-1.303 0,-2.228 -5.965,-4.239 -9.463,-3.189 m 97.15,-0.019 c -2.774,0.455 -4.497,2.974 -2.719,3.974 2.216,1.245 6.632,-0.534 6.632,-2.671 0,-1.279 -1.343,-1.725 -3.913,-1.303 m -165.319,0.766 c -1.118,1.333 1.037,3.65 3.394,3.65 1.828,0 3.218,-1.07 2.338,-1.8 -0.165,-0.137 -0.3,-0.374 -0.3,-0.527 0,-1.184 -4.606,-2.306 -5.432,-1.323 m 117.769,0.666 c -2.539,0.821 -3.93,1.922 -3.934,3.118 -0.01,2.689 7.467,2.184 10.157,-0.686 1.963,-2.093 -2.218,-3.727 -6.223,-2.432 m -81.687,0.393 c -1.372,0.909 0.239,3.791 2.119,3.791 0.224,0 0.458,0.082 0.521,0.183 0.186,0.302 2.945,0.477 3.817,0.242 1.345,-0.364 1.768,-1.76 0.825,-2.722 -0.672,-0.685 -1.655,-1.303 -2.073,-1.303 -0.208,0 -0.481,-0.102 -0.606,-0.227 -0.47,-0.47 -3.879,-0.444 -4.603,0.036 m 151.1,0.541 c -0.746,0.458 -1.15,0.839 -1.15,1.084 0,0.208 -0.135,0.43 -0.3,0.494 -0.527,0.202 -0.325,0.818 0.411,1.252 2.057,1.213 5.689,-0.195 5.689,-2.206 0,-1.599 -2.513,-1.936 -4.65,-0.624 m -35.75,0.563 c -0.385,0.145 -0.864,0.27 -1.064,0.276 -0.401,0.012 -1.847,0.951 -2.368,1.538 -1.168,1.315 0.634,3.202 2.662,2.787 0.369,-0.075 1.008,-0.186 1.421,-0.246 0.413,-0.061 0.801,-0.191 0.862,-0.289 0.061,-0.099 0.294,-0.179 0.518,-0.179 1.033,0 2.551,-1.568 2.562,-2.646 0.013,-1.34 -2.522,-2.025 -4.593,-1.241 m -140.85,0.581 c -1.185,1.629 1.278,3.696 4.413,3.703 2.872,0.007 2.942,-1.812 0.141,-3.669 -1.15,-0.762 -4.009,-0.784 -4.554,-0.034 m 41.233,1.085 c -2.329,0.759 -2.071,2.238 0.675,3.87 l 1.433,0.851 2.345,0.071 c 3.289,0.099 4.303,-0.751 3.095,-2.596 -0.935,-1.426 -5.677,-2.805 -7.548,-2.196 M 281,187.452 c -3.137,2.212 -1.409,4.555 2.384,3.234 2.328,-0.81 3.54,-2.569 2.45,-3.555 -0.717,-0.649 -3.743,-0.448 -4.834,0.321 m -152.55,0.832 c -0.95,0.345 -1.081,0.555 -1.012,1.622 0.072,1.112 2.124,2.694 3.495,2.694 0.354,0 0.699,0.09 0.767,0.2 0.325,0.525 2.443,-0.104 2.947,-0.875 0.756,-1.157 -1.269,-3.204 -3.421,-3.459 -0.571,-0.068 -1.085,-0.2 -1.144,-0.295 -0.14,-0.226 -0.829,-0.179 -1.632,0.113 m 114.087,-0.155 c -0.071,0.071 -0.558,0.198 -1.083,0.282 -5.558,0.89 -6.62,4.911 -1.254,4.747 3.776,-0.115 7.604,-3.06 5.603,-4.31 -1.003,-0.626 -2.933,-1.051 -3.266,-0.719 m -137.237,1.31 c -1.959,1.111 0.348,3.776 3.32,3.834 1.742,0.035 3.297,-1.278 2.071,-1.749 -0.171,-0.065 -0.283,-0.263 -0.25,-0.439 0.195,-1.055 -3.882,-2.36 -5.141,-1.646 m 166.3,-0.04 c -0.165,0.107 -0.504,0.196 -0.753,0.198 -2.812,0.019 -5.279,3.058 -3.408,4.199 0.697,0.425 2.245,0.553 2.461,0.204 0.068,-0.11 0.43,-0.2 0.806,-0.2 2.749,0 4.715,-3.482 2.363,-4.188 -0.313,-0.093 -0.704,-0.224 -0.869,-0.289 -0.165,-0.065 -0.435,-0.031 -0.6,0.076 m -97.848,1.11 c -1.377,0.514 -1.752,0.868 -1.752,1.652 0,0.872 1.445,2.32 2.642,2.647 0.407,0.112 0.795,0.29 0.861,0.397 0.066,0.107 0.335,0.195 0.597,0.195 0.262,0 0.532,0.09 0.6,0.2 0.249,0.404 4.528,0.242 5.25,-0.198 1.635,-0.997 0.031,-3.444 -2.755,-4.202 -0.492,-0.134 -1.075,-0.318 -1.295,-0.408 -1.163,-0.478 -3.245,-0.62 -4.148,-0.283 m 118.413,0.793 c -0.719,0.45 -1.168,0.881 -1.248,1.2 -0.068,0.274 -0.213,0.498 -0.321,0.498 -0.679,0 0.208,1.259 1.135,1.612 1.771,0.673 5.043,-1.092 5.062,-2.731 0.017,-1.519 -2.601,-1.847 -4.628,-0.579 m -150.485,0.164 c -3.307,1.253 0.253,4.805 4.803,4.791 1.804,-0.005 2.472,-0.496 2.343,-1.723 -0.194,-1.852 -4.957,-3.897 -7.146,-3.068 m 82.92,0.269 c -0.385,0.051 -0.785,0.177 -0.89,0.279 -0.104,0.102 -0.353,0.186 -0.553,0.186 -0.199,0 -0.519,0.076 -0.71,0.168 -0.191,0.093 -0.791,0.384 -1.333,0.647 -2.297,1.115 -2.975,2.761 -1.534,3.729 1.152,0.774 5.372,0.559 6.518,-0.332 0.111,-0.086 0.439,-0.213 0.729,-0.283 0.29,-0.069 0.986,-0.509 1.547,-0.977 2.455,-2.052 0.339,-3.969 -3.774,-3.417 m -109.069,0.831 c -1.413,1.561 1.215,3.806 4.479,3.825 1.738,0.01 1.99,-0.147 1.99,-1.24 0,-1.031 -1.531,-2.551 -2.569,-2.551 -0.224,0 -0.463,-0.09 -0.531,-0.2 -0.234,-0.379 -2.999,-0.243 -3.369,0.166 m 141.583,0.211 c -0.06,0.098 -0.444,0.24 -0.852,0.317 -4.11,0.771 -5.042,4.416 -1.162,4.543 3.188,0.103 7.468,-3.209 5.65,-4.374 -0.898,-0.575 -3.376,-0.906 -3.636,-0.486 m 25.386,0.871 c -2.583,0.884 -4.157,3.172 -2.713,3.945 0.468,0.251 3.146,0.277 3.297,0.033 0.059,-0.096 0.376,-0.228 0.705,-0.294 0.328,-0.065 0.933,-0.437 1.345,-0.826 0.412,-0.388 0.821,-0.706 0.908,-0.706 0.087,0 0.158,-0.403 0.158,-0.895 0,-1.354 -1.715,-1.937 -3.7,-1.257 m -126,1.415 c -2.503,0.989 -0.702,3.954 2.896,4.767 0.497,0.113 1.18,0.287 1.518,0.387 0.815,0.243 2.032,0.233 2.186,-0.017 0.068,-0.11 0.332,-0.2 0.587,-0.2 1.03,0 1.355,-1.604 0.508,-2.505 -1.656,-1.763 -5.953,-3.121 -7.695,-2.432 m -51.25,0.581 c -0.472,0.228 -0.485,0.262 -0.495,1.311 -0.018,1.875 3.95,3.503 5.717,2.345 0.495,-0.324 0.79,-1.499 0.378,-1.501 -0.083,0 -0.33,-0.276 -0.55,-0.614 -0.869,-1.334 -3.693,-2.195 -5.05,-1.541 m 22.591,0.004 c -0.409,0.197 -0.452,0.342 -0.4,1.323 l 0.059,1.102 1.493,0.904 c 3.267,1.979 7.209,1.06 5.388,-1.256 -0.528,-0.671 -2.462,-1.921 -2.973,-1.921 -0.211,0 -0.44,-0.09 -0.508,-0.2 -0.165,-0.267 -2.48,-0.231 -3.059,0.048 m 114.359,0.671 c -4.075,0.714 -7.146,4.161 -4.5,5.05 2.826,0.949 8.479,-1.331 8.496,-3.428 0.01,-1.28 -1.786,-2.01 -3.996,-1.622 m 27.567,0.874 c -3.842,1.463 -4.225,4.37 -0.55,4.169 3.312,-0.18 6.323,-3.001 4.538,-4.251 -0.602,-0.422 -2.782,-0.377 -3.988,0.082 M 293.5,197 c -0.068,0.11 -0.334,0.2 -0.591,0.2 -0.711,0 -2.509,1.866 -2.509,2.604 0,1.187 2.899,1.564 4.538,0.592 1.704,-1.012 2.373,-2.471 1.496,-3.265 -0.412,-0.373 -2.721,-0.476 -2.934,-0.131 m -177.95,2.078 c -0.983,0.747 0.314,2.796 2.235,3.53 0.613,0.235 1.322,0.509 1.574,0.61 2.119,0.841 3.536,-1.337 1.921,-2.952 -1.285,-1.284 -4.676,-1.988 -5.73,-1.188 m 25.068,0.488 c -1.088,2.033 2.174,4.434 6.025,4.434 3.123,0 3.151,-1.889 0.057,-3.824 l -1.4,-0.876 -2.232,-0.071 c -2.08,-0.066 -2.246,-0.043 -2.45,0.337 m 31.932,0.057 c -2.891,2.157 4.794,6.088 9.277,4.745 2.271,-0.68 -0.059,-3.807 -3.613,-4.849 -1.671,-0.491 -4.948,-0.43 -5.664,0.104 m 109.49,0.748 c -4.172,1.597 -3.231,5.151 1.003,3.787 1.389,-0.447 1.622,-0.601 2.607,-1.726 1.636,-1.869 -0.672,-3.186 -3.61,-2.061 m -57.95,0.19 c -0.104,0.088 -0.61,0.266 -1.124,0.395 -3.405,0.853 -5.536,4.064 -3.166,4.77 4.552,1.355 12.278,-2.899 8.95,-4.928 -0.682,-0.416 -4.235,-0.597 -4.66,-0.237 m 32.61,0.039 c -0.068,0.11 -0.293,0.2 -0.5,0.2 -1.189,0 -3.6,2.115 -3.6,3.158 0,1.172 3.131,2.142 4.11,1.273 0.105,-0.092 0.708,-0.326 1.341,-0.519 0.729,-0.221 1.352,-0.572 1.7,-0.957 0.302,-0.334 0.706,-0.775 0.899,-0.981 1.201,-1.283 0.251,-2.359 -2.088,-2.368 -0.956,-0.003 -1.794,0.084 -1.862,0.194 m -129.05,2.025 c -0.286,0.292 -0.345,2.375 -0.067,2.375 0.101,0 0.438,0.27 0.749,0.6 0.312,0.33 0.702,0.6 0.867,0.601 0.166,0 0.595,0.18 0.953,0.398 2.795,1.704 6.036,-0.262 3.887,-2.357 -1.558,-1.519 -5.507,-2.518 -6.389,-1.617 m 28.55,0.732 c -2.19,0.857 -0.39,3.629 3,4.619 0.495,0.145 1.056,0.344 1.247,0.443 0.717,0.373 2.848,0.212 3.56,-0.269 0.644,-0.435 0.737,-0.728 0.611,-1.923 -0.178,-1.695 -6.185,-3.744 -8.418,-2.87 m 114,0.517 c -3.022,1.004 -4.469,3.28 -2.75,4.328 0.687,0.419 2.236,0.544 2.45,0.198 0.068,-0.11 0.321,-0.203 0.562,-0.206 0.241,-0.004 0.613,-0.139 0.826,-0.3 0.214,-0.162 0.544,-0.294 0.733,-0.294 0.19,0 0.764,-0.39 1.275,-0.866 2.211,-2.058 0.169,-3.944 -3.096,-2.86 m -28.1,0.658 c -3.759,0.598 -6.754,3.723 -4.719,4.925 1.389,0.821 4.688,0.262 6.933,-1.174 3.408,-2.181 2.078,-4.434 -2.214,-3.751 m -100.9,2.109 c -1.74,1.173 -0.365,3.242 2.9,4.366 2.094,0.72 2.884,0.765 3.903,0.22 1.171,-0.626 1.157,-1.488 -0.043,-2.677 -0.527,-0.522 -1.073,-0.95 -1.213,-0.95 -0.14,0 -0.568,-0.213 -0.951,-0.473 -0.383,-0.26 -1.056,-0.534 -1.496,-0.609 -2.172,-0.371 -2.379,-0.363 -3.1,0.123 m 32.188,1.136 c -2.888,0.946 -1.273,3.705 2.976,5.083 1.786,0.58 5.042,0.765 5.849,0.333 0.523,-0.28 0.531,-1.904 0.012,-2.526 -1.477,-1.768 -6.873,-3.533 -8.837,-2.89 m 83.931,-0.029 c -0.43,0.044 -1.103,0.299 -1.497,0.566 -0.393,0.267 -0.824,0.486 -0.958,0.486 -0.238,0 -0.91,0.534 -1.814,1.44 -0.663,0.665 -0.605,1.623 0.131,2.146 0.629,0.448 2.879,0.602 3.119,0.214 0.068,-0.11 0.329,-0.2 0.58,-0.2 1.528,0 4.12,-2.027 4.12,-3.222 0,-1.302 -1.032,-1.703 -3.681,-1.43 M 225.9,209 c -0.22,0.095 -0.687,0.178 -1.038,0.186 -0.351,0.008 -0.687,0.092 -0.746,0.188 -0.059,0.095 -0.474,0.232 -0.923,0.304 -1.965,0.314 -4.374,2.325 -4.386,3.661 -0.01,1.201 0.442,1.461 2.544,1.461 5.39,0 10.62,-4.209 6.941,-5.586 -1.177,-0.44 -1.747,-0.491 -2.392,-0.214 m -69.95,2.214 c -2.684,1.417 2.034,5.186 6.493,5.186 1.886,0 2.3,-0.258 2.194,-1.368 -0.151,-1.585 -3.104,-3.832 -5.036,-3.832 -0.318,0 -0.633,-0.09 -0.701,-0.2 -0.216,-0.35 -2.148,-0.21 -2.95,0.214 m 86.05,1.168 c -0.681,0.122 -1.409,0.419 -3.148,1.285 -1.774,0.884 -2.749,3.351 -1.543,3.901 2.654,1.209 8.891,-1.616 8.891,-4.026 0,-1.177 -1.614,-1.622 -4.2,-1.16 m -69.555,3.929 c -0.735,0.515 -0.639,2.088 0.155,2.557 0.33,0.195 0.6,0.431 0.6,0.525 0,1.404 7.38,3.322 8.914,2.316 1.698,-1.112 -0.718,-4.045 -4.214,-5.114 -0.44,-0.134 -0.956,-0.323 -1.147,-0.42 -0.619,-0.312 -3.812,-0.211 -4.308,0.136 m 52.309,1.202 c -0.062,0.062 -0.567,0.232 -1.123,0.379 -3.293,0.869 -6.174,4.175 -4.444,5.101 0.679,0.364 4.026,0.25 5.38,-0.183 3.498,-1.117 6.191,-4.269 4.446,-5.203 -0.399,-0.214 -4.059,-0.295 -4.259,-0.094"
     id="path1" />
</svg>
